SplineFontDB: 3.0
FontName: Mekorot-Rashi
FullName: Rashi font 
FamilyName: Mekorot-Rashi
Weight: Medium
Copyright: Based on the Rashi font from the "Makor" (http://www.ctan.org/tex-archive/language/hebrew/makor/) set.\nLicensed under lppl (http://www.latex-project.org/lppl/lppl-1-3c.html).
Version: 000.003
ItalicAngle: 0
UnderlinePosition: -100
UnderlineWidth: 50
Ascent: 800
Descent: 200
LayerCount: 2
Layer: 0 0 "Back" 
Layer: 1 0 "Fore" 
XUID: [1021 686 1246326004 11925511]
UniqueID: 4107694
FSType: 0
OS2Version: 0
OS2_WeightWidthSlopeOnly: 0
OS2_UseTypoMetrics: 0
CreationTime: 1227520932
ModificationTime: 1243450549
OS2TypoAscent: 0
OS2TypoAOffset: 1
OS2TypoDescent: 0
OS2TypoDOffset: 1
OS2TypoLinegap: 90
OS2WinAscent: 0
OS2WinAOffset: 1
OS2WinDescent: 0
OS2WinDOffset: 1
HheadAscent: 0
HheadAOffset: 1
HheadDescent: 0
HheadDOffset: 1
DEI: 0
Encoding: iso8859-8
UnicodeInterp: none
NameList: Adobe Glyph List
DisplaySize: -24
AntiAlias: 1
FitToEm: 1
WinInfo: 0 48 15
BeginPrivate: 6
BlueValues 16 [-20 0 926 942 ]
StdHW 5 [235]
StemSnapH 44 [55 69 101 108 119 220 226 235 239 245 475 ]
StdVW 5 [140]
StemSnapV 47 [77 83 98 106 119 140 195 205 250 316 353 440 ]
BlueShift 2 18
EndPrivate
BeginChars: 266 75

StartChar: exclam
Encoding: 33 33 0
Width: 308
VWidth: 699
Flags: HMW
VStem: 61.6 175
LayerCount: 2
Fore
SplineSet
166.6 730.8 m 0
 169.4 731.5 172.9 731.5 177.1 731.5 c 0
 198.8 731.5 222.6 721.7 233.1 702.1 c 0
 238.7 690.2 240.8 675.5 240.8 661.5 c 0
 240.8 655.9 240.1 651 240.1 645.4 c 0
 238.7 622.3 232.4 599.2 229.6 575.4 c 0
 218.4 487.2 204.4 399 190.4 310.8 c 0
 184.8 278.6 182.7 245 175 212.8 c 0
 171.5 200.2 165.9 185.5 150.5 184.1 c 0
 149.8 184.1 149.1 184.1 148.4 184.1 c 0
 138.6 184.1 128.8 190.4 127.4 200.2 c 0
 126.7 205.8 126.7 211.4 126.7 217.7 c 0
 126.7 220.5 126.7 224 126.7 226.8 c 0
 126.7 230.3 126.7 233.8 126 237.3 c 2
 124.6 266 121.1 294.7 117.6 323.4 c 0
 109.2 399 94.5 473.2 85.4004 548.1 c 0
 82.5996 569.8 80.5 591.5 78.4004 613.2 c 0
 77.7002 621.6 75.5996 629.3 75.5996 637 c 0
 75.5996 639.1 75.5996 640.5 76.2998 641.9 c 2
 78.4004 665.7 95.2002 697.2 114.8 711.9 c 0
 128.8 721.7 149.8 728 166.6 730.8 c 0
142.1 142.8 m 0
 144.9 142.8 147 142.8 149.8 142.8 c 0
 157.5 142.8 165.9 141.4 172.9 140 c 0
 214.9 129.5 237.3 91 237.3 53.2002 c 0
 237.3 22.4004 222.6 -9.09961 191.8 -24.5 c 0
 182.7 -28.7002 174.3 -32.2002 164.5 -33.5996 c 0
 159.6 -34.2998 154 -35 149.1 -35 c 0
 140.7 -35 132.3 -33.5996 124.6 -31.5 c 0
 86.7998 -20.2998 61.5996 17.5 61.5996 55.2998 c 0
 61.5996 64.4004 63 72.7998 65.7998 81.9004 c 0
 72.0996 100.8 86.7998 117.6 102.9 128.8 c 0
 114.8 137.2 128.1 140.7 142.1 142.8 c 0
EndSplineSet
Validated: 1
EndChar

StartChar: quotedbl
Encoding: 34 34 1
Width: 541
VWidth: 699
Flags: HMW
HStem: 375.9 330.4<284.9 415.1>
LayerCount: 2
Fore
SplineSet
264.6 377.3 m 1
 268.1 401.8 278.6 427 285.6 450.8 c 2
 325.5 589.4 l 1
 343 651.7 l 2
 346.5 663.6 349.3 676.9 357 687.4 c 0
 369.6 702.8 387.8 706.3 407.4 706.3 c 0
 422.8 706.3 438.9 704.2 452.2 702.8 c 0
 467.6 702.1 480.2 704.2 492.8 694.4 c 1
 488.6 676.9 488.6 660.1 481.6 643.3 c 0
 469.7 613.2 448.7 586.6 430.5 560 c 2
 359.8 457.1 l 1
 319.9 400.4 l 2
 315.7 394.1 310.1 382.2 303.1 378 c 1
 299.6 376.6 294.7 375.9 289.1 375.9 c 0
 280.7 375.9 270.2 377.3 264.6 377.3 c 1
42 377.3 m 1
 58.0996 448 81.9004 518 101.5 588 c 2
 119.7 651.7 l 2
 123.2 662.9 125.3 675.5 133 685.3 c 0
 145.6 702.1 163.8 705.6 183.4 705.6 c 0
 199.5 705.6 215.6 703.5 230.3 702.8 c 0
 231 702.8 231.7 702.8 231.7 702.8 c 2
 235.2 702.8 239.4 702.8 243.6 702.8 c 0
 254.1 702.8 265.3 702.1 269.5 693.7 c 0
 270.2 692.3 270.2 690.9 270.2 688.8 c 0
 270.2 682.5 268.1 674.1 266.7 669.9 c 0
 261.8 644.7 249.2 622.3 235.2 600.6 c 2
 124.6 439.6 l 1
 94.5 395.5 l 2
 90.2998 390.6 86.7998 381.5 81.2002 378 c 0
 79.7998 377.3 77.7002 377.3 75.5996 377.3 c 0
 72.7998 377.3 70.7002 377.3 69.2998 377.3 c 2
 42 377.3 l 1
EndSplineSet
Validated: 1
EndChar

StartChar: numbersign
Encoding: 35 35 2
Width: 580
VWidth: 699
Flags: HMW
HStem: 0 14.7G<81.9 134.4 81.9 81.9 308 379.4 308 308> 245 70.7<0 117.6 0 135.8 0 342.3 0 188.3 424.2 541.8> 462 70.7<28 153.3 28 162.4 452.2 569.8>
LayerCount: 2
Fore
SplineSet
228.2 460.6 m 1
 210.7 318.5 l 1
 355.6 316.4 l 1
 369.6 455.7 l 1
 228.2 460.6 l 1
198.1 758.1 m 1
 271.6 758.1 l 1
 265.3 682.5 240.8 608.3 235.2 532.7 c 1
 379.4 532.7 l 1
 385 608.3 409.5 682.5 415.1 758.1 c 1
 487.2 758.1 l 1
 470.4 650.3 l 1
 452.2 532.7 l 1
 569.8 532.7 l 1
 569.8 462 l 1
 443.1 462 l 1
 424.2 315.7 l 1
 541.8 315.7 l 1
 541.8 245 l 1
 415.1 245 l 1
 403.2 160.3 l 1
 379.4 0 l 1
 308 0 l 1
 315.7 56.7002 l 1
 333.9 182.7 l 1
 342.3 245 l 1
 188.3 245 l 1
 179.9 182.7 l 1
 163.1 61.5996 l 1
 156.1 16.7998 l 1
 153.3 0.700195 l 1
 134.4 0 l 1
 81.9004 0 l 1
 81.9004 32.2002 91 67.2002 95.9004 99.4004 c 0
 103.6 147.7 108.5 196.7 117.6 245 c 1
 0 245 l 1
 0 315.7 l 1
 135.8 315.7 l 1
 153.3 462 l 1
 28 462 l 1
 28 532.7 l 1
 162.4 532.7 l 1
 168 608.3 192.5 682.5 198.1 758.1 c 1
EndSplineSet
Validated: 1
EndChar

StartChar: dollar
Encoding: 36 36 3
Width: 501
VWidth: 699
Flags: W
HStem: -36.7998 20G<222.6 267.4> -7 183.4<89.5996 183.4> 585.9 43.3994<306.6 338.432>
VStem: 53.2002 89.5996<439.489 507.428 514.5 531.856> 224.7 33.5996<415.8 553.693> 224.7 42<424.908 581.7> 304.5 53.2002<93.0996 105 123.9 123.9 143.5 154> 345.8 93.1006<458.666 563.09>
LayerCount: 2
Fore
SplineSet
184.8 573.3 m 2xf0
 184.8 428.4 l 2
 184.8 425.6 183.4 424.9 182 424.9 c 0
 175.7 424.9 161.7 438.2 161.7 447.3 c 0
 161.7 463.4 142.8 466.9 142.8 483 c 0
 142.8 495.6 147 501.9 147 514.5 c 0
 147 526.4 157.5 532 157.5 543.9 c 0
 157.5 553 176.4 549.5 176.4 558.6 c 0
 176.4 564.2 182 574.7 184.1 574.7 c 0
 184.8 574.7 184.8 574.7 184.8 573.3 c 2xf0
224.7 581.7 m 1xf4
 224.7 415.8 l 1
 258.3 392.7 l 1xf8
 266.7 585.9 l 1
 224.7 581.7 l 1xf4
224.7 254.1 m 1xf4
 264.6 233.1 l 1
 260.4 42 l 1
 224.7 37.7998 l 1
 224.7 254.1 l 1xf4
304.5 210 m 1xf2
 304.5 42 l 1
 322 53.2002 337.4 53.9004 348.6 71.4004 c 0
 356.3 83.2998 357 93.0996 357 105 c 0
 357 109.9 357 114.1 357 119.7 c 0
 357 123.9 l 0
 357 131.6 357.7 137.9 357.7 143.5 c 0
 357.7 154 356.3 163.1 350.7 174.3 c 0
 341.6 192.5 329 197.4 312.9 210 c 0
 310.1 212.1 308 210 304.5 210 c 1xf2
185.5 665 m 1
 185.5 617.4 l 1
 173.6 615.3 161.7 609 150.5 604.1 c 0
 88.9004 576.1 53.2002 512.4 53.2002 448 c 0
 53.2002 413.7 63 379.4 84.7002 350 c 0
 102.2 326.9 123.2 307.3 147.7 292.6 c 0
 156.1 287 165.2 282.8 174.3 278.6 c 0
 177.8 277.2 183.4 275.8 184.8 272.3 c 0
 186.2 269.5 186.2 266.7 186.2 263.9 c 0
 186.2 259.7 185.5 254.8 185.5 250.6 c 2
 185.5 203 l 1
 185.5 35.7002 l 1
 175.7 40.5996 166.6 43.4004 160.3 52.5 c 0
 135.8 86.7998 159.6 138.6 121.8 165.2 c 0
 116.2 169.4 110.6 172.2 105 174.3 c 0
 100.1 175.7 94.5 176.4 89.5996 176.4 c 0
 71.4004 176.4 52.5 166.6 44.7998 149.8 c 0
 41.2998 142.8 39.9004 135.1 39.9004 126.7 c 0
 39.9004 117.6 42 108.5 44.0996 100.8 c 0
 65.0996 43.4004 121.8 -4.2002 183.4 -7 c 1
 183.4 -107.8 l 1
 222.6 -107.8 l 1
 222.6 -16.7998 l 1
 267.4 -16.7998 l 1
 267.4 -107.8 l 1
 303.1 -107.8 l 1
 303.1 -37.7998 l 2
 303.1 -34.2998 302.4 -27.2998 302.4 -21 c 0
 302.4 -16.7998 303.1 -13.2998 304.5 -11.2002 c 0xf2
 308 -6.2998 323.4 -3.5 329.7 -1.40039 c 0
 347.2 4.90039 363.3 12.5996 378 23.7998 c 0
 433.3 66.5 452.9 135.8 452.9 203 c 0
 452.9 204.4 452.9 205.8 452.9 207.2 c 0
 452.2 263.2 405.3 313.6 361.9 343 c 0
 349.3 351.4 336.7 358.4 323.4 366.1 c 0
 319.2 368.9 310.1 371 307.3 375.9 c 1
 305.9 377.3 305.9 380.1 305.9 382.9 c 0
 305.9 385.7 306.6 389.2 306.6 392 c 2
 306.6 431.9 l 1
 306.6 580.3 l 1
 310.8 580.3 315.7 579.6 320.6 578.2 c 0
 338.1 572.6 343 559.3 345.8 542.5 c 0
 350 513.8 341.6 464.1 378 453.6 c 0
 382.2 452.2 387.1 452.2 391.3 452.2 c 0
 394.1 452.2 396.2 452.2 398.3 452.2 c 0
 427.7 453.6 438.9 479.5 438.9 506.1 c 0xf1
 438.9 518.7 436.1 531.3 431.2 541.8 c 0
 414.4 576.8 376.6 599.9 341.6 613.9 c 0
 330.4 618.8 318.5 623.7 306.6 625.1 c 1
 306.6 665 l 1
 270.2 665 l 1
 270.2 629.3 l 1
 222.6 629.3 l 1
 222.6 665 l 1
 185.5 665 l 1
EndSplineSet
Validated: 9
EndChar

StartChar: percent
Encoding: 37 37 4
Width: 1008
VWidth: 699
Flags: W
VStem: 138.6 156.101<366.1 406.7 455.7 490.7>
LayerCount: 2
Fore
SplineSet
708.4 214.2 m 0
 707.7 224 707 233.8 707 242.9 c 0
 707 291.2 724.5 325.5 756 325.5 c 0
 759.5 325.5 763.7 324.8 767.2 324.1 c 0
 768.6 324.1 770 324.1 771.4 324.1 c 0
 808.5 324.1 863.1 277.2 863.1 219.1 c 0
 863.1 216.3 862.4 213.5 862.4 210.7 c 0
 862.4 205.1 863.1 198.8 863.1 193.9 c 0
 863.1 117.6 833 89.5996 803.6 89.5996 c 0
 790.3 89.5996 777.7 94.5 767.2 103.6 c 1
 735 103.6 708.4 153.3 708.4 214.2 c 0
140 427 m 0
 139.3 436.8 138.6 446.6 138.6 455.7 c 0
 138.6 504 156.1 539 187.6 539 c 0
 191.1 539 195.3 538.3 198.8 537.6 c 0
 200.2 537.6 201.6 537.6 203 537.6 c 0
 240.1 537.6 294.7 490.7 294.7 432.6 c 0
 294.7 429.8 294 427 294 424.2 c 0
 294 417.9 294.7 412.3 294.7 406.7 c 0
 294.7 330.4 264.6 302.4 235.2 302.4 c 0
 221.9 302.4 209.3 308 198.8 316.4 c 1
 166.6 316.4 140 366.1 140 427 c 0
758.1 429.1 m 0
 760.9 429.1 763.7 429.8 766.5 429.8 c 0
 775.6 429.8 785.4 428.4 794.5 427.7 c 0
 827.4 425.6 863.8 420.7 890.4 399 c 0
 914.9 378.7 926.8 348.6 934.5 319.2 c 0
 942.2 287 945.7 253.4 945.7 220.5 c 0
 945.7 191.8 942.9 163.8 938.7 135.8 c 0
 928.9 76.2998 908.6 -16.0996 834.4 -23.0996 c 0
 819 -24.5 803.6 -25.9004 788.2 -25.9004 c 0
 751.1 -25.9004 713.3 -19.5996 683.2 2.7998 c 0
 660.1 20.2998 648.2 46.9004 640.5 74.9004 c 0
 630 110.6 625.1 147.7 625.1 184.8 c 0
 625.1 203.7 626.5 223.3 628.6 242.2 c 0
 633.5 275.8 641.9 308 653.8 340.2 c 0
 658 353.5 660.8 365.4 669.9 377.3 c 0
 683.2 396.9 704.9 411.6 727.3 420 c 0
 737.1 424.2 747.6 428.4 758.1 429.1 c 0
280.7 -25.2002 m 1
 394.8 -25.2002 l 1
 400.4 -2.09961 409.5 21 417.9 43.4004 c 0
 434.7 89.5996 453.6 134.4 474.6 179.2 c 0
 523.6 282.1 575.4 382.9 629.3 483 c 0
 657.3 534.8 688.8 587.3 711.9 641.9 c 1
 632.8 641.9 l 2
 629.3 641.9 622.3 642.6 616.7 642.6 c 0
 611.8 642.6 607.6 641.9 605.5 639.8 c 0
 601.3 635.6 599.9 625.8 597.1 620.2 c 2
 578.9 573.3 l 2
 558.6 523.6 536.2 474.6 513.8 425.6 c 0
 490 373.1 462.7 321.3 437.5 269.5 c 0
 411.6 214.9 386.4 159.6 357.7 107.1 c 0
 333.2 62.2998 302.4 20.2998 280.7 -25.2002 c 1
199.5 643.3 m 0
 205.8 644 212.8 644.7 219.8 644.7 c 0
 267.4 644.7 322 625.1 349.3 588 c 0
 355.6 580.3 358.4 568.4 361.9 559.3 c 0
 369.6 536.2 374.5 513.1 377.3 489.3 c 0
 379.4 471.8 380.8 454.3 380.8 436.8 c 0
 380.8 382.9 370.3 329 349.3 280 c 0
 340.9 261.1 330.4 233.8 315 219.8 c 0
 295.4 202.3 262.5 196 237.3 192.5 c 0
 228.2 191.8 218.4 191.1 207.9 191.1 c 0
 169.4 191.1 125.3 199.5 100.1 225.4 c 0
 66.5 259.7 57.4004 314.3 57.4004 362.6 c 0
 57.4004 373.1 57.4004 382.9 58.0996 392.7 c 0
 60.2002 424.9 59.5 457.8 64.4004 489.3 c 0
 68.5996 513.8 80.5 539 90.2998 562.1 c 0
 100.8 587.3 114.8 613.9 139.3 628.6 c 0
 158.2 639.8 177.8 640.5 199.5 643.3 c 0
EndSplineSet
Validated: 9
EndChar

StartChar: ampersand
Encoding: 38 38 5
Width: 894
VWidth: 699
Flags: HMW
HStem: -17.5 91.7<658 752.15> 478.1 18.2
LayerCount: 2
Fore
SplineSet
867.3 117.6 m 1
 828.8 49 751.1 -17.5 669.9 -17.5 c 0
 646.1 -17.5 622.3 -11.9004 599.2 1.40039 c 0
 570.5 17.5 546.7 39.2002 524.3 62.2998 c 0
 518 68.5996 512.4 74.9004 506.8 81.9004 c 0
 504.7 84 501.9 88.2002 498.4 88.2002 c 0
 495.6 88.2002 492.8 84.7002 490.7 83.2998 c 0
 485.1 78.4004 478.8 73.5 472.5 68.5996 c 0
 451.5 53.2002 428.4 39.9004 404.6 28.7002 c 0
 385.7 21 367.5 13.2998 347.9 7.7002 c 0
 313.6 -2.7998 272.3 -10.5 231.7 -10.5 c 0
 166.6 -10.5 102.2 8.40039 65.0996 62.2998 c 0
 57.4004 74.2002 51.0996 86.7998 46.2002 100.1 c 0
 39.9004 117.6 37.0996 137.2 35.7002 155.4 c 0
 35.7002 163.8 35 172.2 35 179.9 c 0
 35 191.8 35.7002 203.7 38.5 215.6 c 0
 51.7998 283.5 102.9 335.3 156.8 375.2 c 0
 179.9 392.7 206.5 408.1 231.7 423.5 c 2
 252 437.5 l 2
 254.1 438.9 259 441 259.7 443.8 c 1
 261.1 446.6 258.3 450.8 257.6 452.9 c 0
 254.8 460.6 252 468.3 249.2 476.7 c 0
 240.1 504.7 231.7 533.4 226.8 562.8 c 0
 224 580.3 221.9 599.9 221.9 618.8 c 0
 221.9 636.3 223.3 653.1 228.2 669.2 c 0
 252.7 744.8 331.8 793.1 408.1 795.9 c 1
 410.2 796.6 412.3 796.6 413.7 796.6 c 0
 499.1 796.6 559.3 721 559.3 641.9 c 0
 559.3 625.1 556.5 609 550.9 592.9 c 0
 527.8 522.9 455 470.4 389.2 443.1 c 1
 471.8 308 l 1
 509.6 247.1 l 1
 532.7 207.9 l 1
 545.3 222.6 554.4 240.1 564.9 255.5 c 2
 587.3 289.8 l 1
 604.1 315.7 l 2
 620.9 340.9 644 378.7 644 412.3 c 0
 644 429.1 638.4 444.5 624.4 457.8 c 0
 618.1 462.7 611.8 466.9 604.8 469.7 c 0
 593.6 474.6 581 476.7 568.4 478.1 c 1
 568.4 497 l 1
 812.7 497 l 1
 812.7 494.2 813.4 490 813.4 486.5 c 0
 813.4 483.7 812.7 480.9 812 478.8 c 1
 807.8 473.2 790.3 469.7 783.3 466.9 c 0
 763.7 459.9 744.1 452.2 729.4 436.8 c 0
 711.2 416.5 697.9 390.6 683.9 367.5 c 2
 609 245 l 1
 579.6 196.7 l 2
 575.4 189.7 568.4 182 567.7 174.3 c 2
 567.7 173.6 l 2
 567.7 164.5 574.7 156.1 580.3 149.8 c 0
 593.6 135.1 609.7 122.5 625.8 111.3 c 0
 657.3 90.2998 697.9 74.2002 736.4 74.2002 c 0
 767.9 74.2002 798 84.7002 821.1 112 c 0
 827.4 119 833.7 126.7 837.9 135.1 c 1
 867.3 117.6 l 1
EndSplineSet
Validated: 1
EndChar

StartChar: quotesingle
Encoding: 39 39 6
Width: 308
VWidth: 699
Flags: HMW
HStem: 375.2 333.2<49.7 216.3 49.7 216.3>
VStem: 49.7 221.2
LayerCount: 2
Fore
SplineSet
49.7002 375.2 m 1
 53.2002 399.7 62.2998 423.5 68.5996 447.3 c 2
 108.5 592.9 l 1
 127.4 662.2 l 2
 130.2 671.3 131.6 683.2 137.2 690.9 c 0
 144.2 701.4 157.5 702.8 169.4 704.9 c 0
 184.1 707 198.1 708.4 212.1 708.4 c 0
 220.5 708.4 228.9 707.7 238 706.3 c 0
 246.4 705.6 263.9 703.5 269.5 696.5 c 1
 270.2 695.1 270.9 692.3 270.9 689.5 c 0
 270.9 683.2 268.8 675.5 268.1 672 c 0
 263.9 646.8 254.1 624.4 240.8 602.7 c 0
 207.9 550.2 169.4 500.5 135.8 448 c 2
 104.3 398.3 l 2
 100.1 392 95.2002 380.8 88.9004 376.6 c 0
 86.0996 374.5 81.2002 375.2 77.7002 375.2 c 2
 49.7002 375.2 l 1
EndSplineSet
Validated: 1
EndChar

StartChar: parenright
Encoding: 41 41 7
Width: 387
VWidth: 699
Flags: HMW
VStem: 207.9 121.1
LayerCount: 2
Fore
SplineSet
42 680.4 m 1
 46.2002 688.1 52.5 694.4 58.0996 700.7 c 0
 60.2002 703.5 63 707 65.7998 707.7 c 2
 66.5 708.4 67.2002 708.4 67.2002 708.4 c 1
 72.0996 708.4 79.7998 702.8 83.2998 700.7 c 0
 100.8 692.3 116.9 681.8 132.3 669.9 c 0
 193.2 623.7 236.6 560 271.6 492.8 c 0
 311.5 415.8 327.6 331.1 329.7 245 c 0
 329.7 240.1 329.7 234.5 329.7 229.6 c 0
 329.7 68.5996 268.1 -86.7998 135.8 -185.5 c 0
 112.7 -203 87.5 -219.8 61.5996 -232.4 c 1
 44.7998 -205.1 l 1
 135.1 -149.8 175.7 -48.2998 191.1 52.5 c 0
 197.4 93.7998 199.5 135.1 202.3 177.1 c 0
 204.4 207.9 207.9 238.7 207.9 270.2 c 0
 207.9 273 207.9 275.8 207.9 279.3 c 0
 206.5 345.1 196.7 413 179.9 477.4 c 0
 170.1 513.8 159.6 553 140 585.2 c 0
 125.3 609 105 626.5 84.7002 644.7 c 0
 70.7002 656.6 56.7002 670.6 42 680.4 c 1
EndSplineSet
Validated: 1
EndChar

StartChar: parenleft
Encoding: 40 40 8
Width: 387
VWidth: 699
Flags: HMW
VStem: 55.3 123.9
LayerCount: 2
Fore
SplineSet
326.9 -230.3 m 1
 308 -226.8 287 -210 271.6 -199.5 c 0
 217.7 -163.1 173.6 -114.1 139.3 -59.5 c 0
 97.2998 9.09961 73.5 86.7998 62.2998 166.6 c 0
 57.4004 197.4 55.2998 229.6 55.2998 261.1 c 0
 55.2998 379.4 88.9004 494.9 166.6 589.4 c 0
 198.1 626.5 233.8 658.7 274.4 685.3 c 0
 287.7 694.4 306.6 708.4 322.7 711.9 c 1
 340.2 687.4 l 1
 320.6 674.1 302.4 660.8 285.6 643.3 c 0
 208.6 562.8 188.3 454.3 180.6 347.2 c 0
 178.5 316.4 177.8 285.6 177.8 254.8 c 0
 177.8 235.9 177.8 216.3 179.2 197.4 c 0
 182 125.3 183.4 54.5996 206.5 -14.7002 c 0
 223.3 -64.4004 247.1 -109.9 282.1 -149.8 c 0
 294 -163.1 308 -175 322 -186.2 c 0
 326.9 -190.4 338.8 -195.3 340.9 -201.6 c 1
 340.9 -202.3 341.6 -202.3 341.6 -203 c 0
 341.6 -210.7 329 -224.7 326.9 -230.3 c 1
EndSplineSet
Validated: 1
EndChar

StartChar: asterisk
Encoding: 42 42 9
Width: 658
VWidth: 699
Flags: W
VStem: 283.5 99.4004<262.232 392.371 584.705 698.715 709.8 723.838> 305.2 65.0996<481.223 504.56> 322 28.7002<517.3 576.012>
LayerCount: 2
Fore
SplineSet
322 515.2 m 1x20
 322 566.3 286.3 607.6 284.2 658 c 2
 283.5 661.5 283.5 665 283.5 668.5 c 0
 283.5 688.1 287 710.5 300.3 724.5 c 0
 310.1 733.6 323.4 738.5 337.4 738.5 c 0
 355.6 738.5 373.8 729.4 380.1 709.8 c 0
 382.2 702.8 382.9 696.5 382.9 689.5 c 0x80
 382.9 683.2 382.2 676.9 382.2 670.6 c 0
 382.2 669.9 382.2 668.5 382.2 667.8 c 0
 382.2 663.6 382.2 659.4 382.2 655.9 c 0
 382.2 652.4 382.2 648.9 381.5 645.4 c 0
 373.8 601.3 350.7 562.8 350.7 517.3 c 1x20
 357 520.1 364.7 520.8 370.3 525.7 c 0
 385 536.2 396.9 553.7 408.1 567.7 c 0
 419.3 581 431.2 593.6 443.1 605.5 c 0
 456.4 618.8 469.7 630.7 487.9 635.6 c 0
 494.2 637 501.9 638.4 508.9 638.4 c 0
 515.9 638.4 523.6 637 529.2 634.2 c 0
 543.9 625.8 554.4 605.5 554.4 586.6 c 0
 554.4 575.4 550.9 564.9 542.5 557.2 c 0
 528.5 544.6 508.9 531.3 490.7 525 c 0
 465.5 516.6 437.5 516.6 411.6 511.7 c 0
 399.7 508.9 389.2 506.1 379.4 499.1 c 0
 376.6 497 370.3 493.5 370.3 490 c 0x40
 370.3 486.5 376.6 484.4 379.4 483.7 c 2
 389.2 478.1 399.7 474.6 410.2 471.8 c 0
 434.7 465.5 459.9 462 485.1 457.1 c 0
 504.7 452.9 522.2 450.1 537.6 435.4 c 0
 541.8 431.9 547.4 427 550.2 422.1 c 0
 552.3 417.9 553 413 553 407.4 c 0
 553 398.3 551.6 388.5 551.6 382.2 c 0
 551.6 380.8 551.6 378.7 551.6 377.3 c 0
 551.6 374.5 550.9 371.7 549.5 369.6 c 0
 539 352.8 521.5 346.5 503.3 346.5 c 0
 496.3 346.5 488.6 347.9 481.6 350 c 0
 461.3 355.6 447.3 371.7 433.3 387.1 c 0
 407.4 415.8 385.7 448 352.1 468.3 c 1
 353.5 445.2 357 423.5 364 401.8 c 0
 373.1 374.5 385.7 345.1 385.7 316.4 c 0
 385.7 308.7 385 300.3 382.9 292.6 c 0
 380.1 282.8 375.2 268.1 367.5 261.8 c 0
 357.7 254.1 347.2 250.6 337.4 250.6 c 0
 311.5 250.6 287.7 271.6 284.2 299.6 c 0
 283.5 302.4 283.5 305.2 283.5 308 c 0x80
 283.5 324.1 288.4 340.9 293.3 355.6 c 0
 303.8 392.7 322 430.5 322 469.7 c 1x20
 287.7 453.6 263.9 418.6 240.1 390.6 c 0
 226.1 374.5 212.1 357.7 190.4 351.4 c 0
 183.4 349.3 172.2 347.2 161.7 347.2 c 0
 151.9 347.2 142.1 349.3 135.8 353.5 c 0
 122.5 363.3 120.4 388.5 120.4 403.2 c 0
 120.4 406 120.4 408.1 120.4 410.9 c 0
 120.4 413.7 120.4 416.5 121.8 419.3 c 0
 125.3 428.4 134.4 437.5 142.1 443.8 c 0
 175 470.4 226.1 468.3 265.3 476.7 c 0
 275.8 478.8 286.3 481.6 296.8 485.8 c 0
 298.9 486.5 305.2 487.9 305.2 491.4 c 1x40
 305.2 495.6 298.2 497.7 295.4 498.4 c 0
 286.3 502.6 280 507.5 269.5 509.6 c 0
 228.9 516.6 179.2 515.9 145.6 543.2 c 0
 138.6 548.8 129.5 557.9 125.3 567 c 0
 124.6 569.1 124.6 571.2 124.6 573.3 c 0
 124.6 577.5 124.6 581 125.3 584.5 c 0
 126.7 597.8 126 618.1 137.2 627.9 c 0
 144.2 633.5 160.3 636.3 174.3 636.3 c 0
 182 636.3 189 635.6 193.2 634.2 c 0
 212.8 629.3 228.9 611.8 241.5 597.1 c 0
 265.3 569.1 288.4 531.3 322 515.2 c 1x20
EndSplineSet
Validated: 5
EndChar

StartChar: plus
Encoding: 43 43 10
Width: 854
VWidth: 699
Flags: HMW
HStem: 247.8 83.3
VStem: 401.8 83.3<-45.5 247.8 -45.5 247.8 331.8 625.1>
LayerCount: 2
Fore
SplineSet
401.8 625.1 m 1
 485.1 625.1 l 1
 485.1 331.8 l 1
 774.2 331.8 l 1
 774.2 247.8 l 1
 485.1 247.8 l 1
 485.1 -45.5 l 1
 401.8 -45.5 l 1
 401.8 247.8 l 1
 122.5 247.8 l 1
 122.5 331.8 l 1
 401.8 331.8 l 1
 401.8 625.1 l 1
EndSplineSet
Validated: 1
EndChar

StartChar: comma
Encoding: 44 44 11
Width: 270
VWidth: 699
Flags: HMW
HStem: -163.1 334.6
VStem: 27.3 220.5
LayerCount: 2
Fore
SplineSet
27.2998 -163.1 m 1
 29.4004 -140.7 39.2002 -116.9 44.7998 -95.2002 c 2
 84.7002 53.2002 l 1
 100.1 112.7 l 2
 103.6 124.6 105 137.9 112 147.7 c 0
 126 168 148.4 170.8 171.5 170.8 c 0
 182.7 170.8 193.9 170.1 204.4 170.1 c 2
 205.1 170.1 l 1
 207.2 170.1 l 2
 219.1 170.1 236.6 170.1 242.9 160.3 c 0
 246.4 154.7 247.8 147.7 247.8 140.7 c 0
 247.8 114.8 226.8 85.4004 215.6 67.2002 c 2
 107.8 -98 l 1
 82.5996 -137.2 l 2
 78.4004 -143.5 74.9004 -152.6 67.9004 -156.8 c 0
 58.7998 -163.1 46.9004 -163.1 35.7002 -163.1 c 0
 32.9004 -163.1 30.0996 -163.1 27.2998 -163.1 c 1
EndSplineSet
Validated: 1
EndChar

StartChar: rafe
Encoding: 256 1471 12
Width: 465
VWidth: 699
Flags: HMW
HStem: 469.7 158.2<90.3 375.2 44.8 424.2 90.3 90.3>
LayerCount: 2
Fore
SplineSet
44.7998 627.9 m 1
 375.2 627.9 l 1
 424.2 469.7 l 1
 90.2998 469.7 l 1
 44.7998 627.9 l 1
EndSplineSet
Validated: 1
EndChar

StartChar: period
Encoding: 46 46 13
Width: 270
VWidth: 699
Flags: HMW
HStem: -35.7 189
VStem: 33.6 185.5<43.4 60.9 43.4 72.1>
LayerCount: 2
Fore
SplineSet
119.7 151.9 m 0
 122.5 152.6 126 152.6 128.8 152.6 c 0
 173.6 152.6 214.2 112 218.4 69.2998 c 0
 219.1 65.7998 219.1 62.2998 219.1 59.5 c 0
 219.1 27.2998 203.7 -2.09961 177.1 -21 c 0
 167.3 -27.2998 154.7 -32.9004 142.8 -35 c 0
 137.9 -35.7002 132.3 -35.7002 126.7 -35.7002 c 0
 112.7 -35.7002 98.7002 -33.5996 86.7998 -28 c 0
 51.0996 -11.9004 33.5996 22.4004 33.5996 56.7002 c 0
 33.5996 87.5 47.5996 119 75.5996 137.2 c 0
 89.5996 147 103.6 149.8 119.7 151.9 c 0
EndSplineSet
Validated: 1
EndChar

StartChar: slash
Encoding: 47 47 14
Width: 501
VWidth: 699
Flags: W
HStem: -17.5 21G<136.5 141.4>
LayerCount: 2
Fore
SplineSet
49.7002 -16.7998 m 1
 53.2002 -3.5 62.2998 8.40039 67.9004 21.7002 c 0
 84 56.7002 102.2 90.2998 119 125.3 c 2
 283.5 462 l 1
 347.9 592.2 l 1
 366.1 630 l 2
 368.9 634.9 371 642.6 375.2 646.1 c 0
 377.3 647.5 381.5 648.2 385.7 648.2 c 0
 391.3 648.2 398.3 647.5 401.8 647.5 c 2
 475.3 647.5 l 1
 471.1 632.1 460.6 617.4 453.6 602.7 c 2
 403.9 500.5 l 2
 352.1 396.2 298.2 291.9 249.2 185.5 c 0
 226.8 137.2 203 90.2998 179.2 42.7002 c 2
 159.6 2.7998 l 2
 156.8 -2.09961 154.7 -11.2002 149.8 -14.7002 c 0
 147.7 -16.7998 143.5 -17.5 139.3 -17.5 c 0
 133.7 -17.5 126.7 -16.7998 123.2 -16.7998 c 2
 49.7002 -16.7998 l 1
EndSplineSet
Validated: 1
EndChar

StartChar: zero
Encoding: 48 48 15
Width: 501
VWidth: 699
Flags: HMW
HStem: 641.2 14G<253.4 297.85>
VStem: 37.8 139.3 329 137.9<171.5 345.8 280.35 353.5>
LayerCount: 2
Fore
SplineSet
241.5 602 m 1
 211.4 596.4 l 1
 176.4 481.6 l 1
 176.4 320.6 l 1
 183.4 264.6 l 1
 203 120.4 l 1
 234.5 47.5996 l 1
 271.6 36.4004 l 1
 295.4 47.5996 l 1
 329 171.5 l 1
 330.4 232.4 l 1
 330.4 301 l 1
 329 353.5 l 1
 318.5 428.4 l 1
 290.5 549.5 l 1
 267.4 588 l 1
 241.5 602 l 1
346.5 306.6 m 0
 346.5 306.6 l 0
239.4 653.8 m 0
 245 654.5 250.6 655.2 256.2 655.2 c 0
 339.5 655.2 406.7 571.9 432.6 500.5 c 0
 454.3 442.4 466.9 378 466.9 313.6 c 0
 466.9 247.1 453.6 180.6 424.2 121.8 c 0
 410.2 93.0996 393.4 64.4004 371.7 42 c 0
 345.1 15.4004 308.7 0.700195 272.3 -4.90039 c 0
 259.7 -6.2998 245.7 -7.7002 231.7 -7.7002 c 0
 222.6 -7.7002 213.5 -7 205.1 -5.59961 c 0
 124.6 11.9004 86.0996 93.0996 64.4004 164.5 c 0
 47.5996 219.8 37.7998 279.3 37.7998 338.8 c 0
 37.7998 409.5 52.5 480.2 89.5996 541.8 c 0
 122.5 597.8 172.9 644.7 239.4 653.8 c 0
EndSplineSet
Validated: 1
EndChar

StartChar: one
Encoding: 49 49 16
Width: 501
VWidth: 699
Flags: HMW
HStem: -9.8 39.2<409.15 417.2 98 98>
VStem: 191.8 144.2
LayerCount: 2
Fore
SplineSet
104.3 595.7 m 1
 148.4 595.7 191.8 607.6 232.4 624.4 c 0
 247.8 631.4 263.9 644.7 280 648.9 c 0
 285.6 650.3 292.6 651 299.6 651 c 0
 311.5 651 324.8 649.6 335.3 649.6 c 1
 335.3 172.9 l 2
 335.3 162.4 335.3 151.2 335.3 140 c 0
 335.3 116.9 336.7 93.7998 345.1 72.0996 c 0
 349.3 60.2002 353.5 49 364.7 41.2998 c 0
 378 32.2002 401.1 29.4004 417.2 29.4004 c 1
 417.2 -9.7998 l 1
 98 -9.7998 l 1
 98 29.4004 l 1
 129.5 35 163.1 35.7002 180.6 67.2002 c 0
 190.4 86.0996 193.2 109.2 193.2 131.6 c 0
 193.2 150.5 191.8 168.7 191.8 185.5 c 2
 191.8 406.7 l 1
 191.8 470.4 l 2
 191.8 476 191.8 480.9 191.8 486.5 c 0
 191.8 494.2 191.1 501.9 189 509.6 c 0
 180.6 533.4 158.9 541.8 135.8 546 c 0
 130.2 546.7 116.2 545.3 111.3 549.5 c 0
 109.2 551.6 109.2 557.9 108.5 560.7 c 0
 107.1 572.6 104.3 584.5 104.3 595.7 c 1
EndSplineSet
Validated: 1
EndChar

StartChar: two
Encoding: 50 50 17
Width: 501
VWidth: 699
Flags: W
HStem: -7 116.2<172.179 306.086 306.086 412.379> 568.4 87.5<176.28 297.85>
VStem: 329 138.6<379.906 518.108>
LayerCount: 2
Fore
SplineSet
170.8 95.2002 m 1
 170.1 96.5996 l 1
 170.8 95.2002 l 1
45.5 475.3 m 1
 55.2998 506.1 70.7002 529.9 89.5996 555.8 c 0
 98 568.4 105 582.4 115.5 593.6 c 0
 134.4 614.6 163.1 630 189.7 639.8 c 0
 217 649.6 249.9 655.9 282.8 655.9 c 0
 312.9 655.9 342.3 651 367.5 639.1 c 0
 433.3 609.7 467.6 539 467.6 469.7 c 0
 467.6 463.4 466.9 456.4 466.2 450.1 c 0
 459.2 369.6 401.1 308 345.1 255.5 c 0
 315.7 228.2 287.7 199.5 257.6 172.2 c 2
 170.8 96.5996 l 1
 200.2 105.7 231 109.2 261.8 109.2 c 0
 273 109.2 284.9 108.5 296.8 107.8 c 0
 313.6 106.4 332.5 104.3 350.7 104.3 c 0
 357.7 104.3 364 104.3 370.3 105 c 0
 385.7 107.8 401.8 118.3 411.6 130.2 c 0
 415.8 135.1 419.3 145.6 424.2 148.4 c 1
 425.6 149.8 428.4 149.8 430.5 149.8 c 0
 433.3 149.8 436.1 149.8 438.2 149.8 c 2
 472.5 149.8 l 1
 427 -7 l 1
 35.7002 -7 l 1
 35.7002 1.40039 34.2998 12.5996 34.2998 23.0996 c 0
 34.2998 28.7002 35 34.2998 36.4004 39.2002 c 0
 39.9004 48.2998 55.2998 58.0996 62.2998 65.0996 c 0
 83.2998 86.0996 105.7 107.1 126 129.5 c 0
 184.1 193.2 243.6 253.4 287 328.3 c 0
 303.8 357.7 322 389.2 326.9 422.8 c 0
 328.3 430.5 329 438.2 329 445.9 c 0
 329 469.7 323.4 493.5 311.5 513.1 c 0
 291.9 546.7 254.1 568.4 216.3 568.4 c 0
 205.1 568.4 193.9 566.3 182.7 562.8 c 0
 139.3 546.7 112 497.7 91.7002 459.2 c 1
 45.5 475.3 l 1
EndSplineSet
Validated: 1
EndChar

StartChar: three
Encoding: 51 51 18
Width: 501
VWidth: 699
Flags: W
HStem: -14 57.4004<86.3971 258.576> 584.5 74.9004<163.405 287.35>
VStem: 282.8 141.4<466.078 556.066> 312.9 143.5<106.094 263.502>
LayerCount: 2
Fore
SplineSet
95.2002 541.8 m 1xe0
 89.5996 550.2 85.4004 560 80.5 568.4 c 0
 78.4004 571.9 75.5996 575.4 75.5996 578.9 c 0
 75.5996 579.6 75.5996 580.3 75.5996 580.3 c 1
 77 587.3 91.7002 595 97.2998 599.2 c 0
 120.4 616 145.6 630.7 172.2 641.2 c 0
 201.6 652.4 237.3 659.4 271.6 659.4 c 0
 303.1 659.4 333.9 653.8 360.5 639.8 c 0
 402.5 617.4 424.2 576.1 424.2 534.8 c 0xe0
 424.2 503.3 411.6 471.1 385.7 446.6 c 0
 359.1 420.7 323.4 406.7 291.9 387.8 c 1
 323.4 382.2 352.1 378 379.4 359.1 c 0
 430.5 322.7 456.4 261.8 456.4 200.9 c 0
 456.4 157.5 443.8 114.1 417.9 78.4004 c 0
 382.2 30.0996 320.6 -0.700195 262.5 -10.5 c 0
 246.4 -12.5996 230.3 -14 214.2 -14 c 0
 176.4 -14 138.6 -7.7002 102.2 2.7998 c 0
 89.5996 6.2998 77 11.2002 65.0996 16.0996 c 0
 61.5996 17.5 55.2998 19.5996 53.2002 22.4004 c 1
 53.2002 23.0996 53.2002 24.5 53.2002 25.2002 c 0
 53.2002 28.7002 55.2998 33.5996 56.7002 35.7002 c 1
 60.9004 46.9004 64.4004 57.4004 67.9004 67.9004 c 1
 84 65.7998 99.4004 57.4004 114.8 53.2002 c 0
 136.5 47.5996 158.9 43.4004 182 43.4004 c 0
 210 43.4004 238 49.7002 261.8 67.2002 c 0
 279.3 80.5 291.2 100.8 299.6 120.4 c 0
 308.7 140.7 312.9 163.8 312.9 186.2 c 0xd0
 312.9 235.9 291.2 284.9 240.8 304.5 c 0
 231.7 308.7 222.6 310.1 214.2 310.1 c 0
 195.3 310.1 177.8 302.4 156.8 296.8 c 1
 140 336.7 l 1
 157.5 345.8 173.6 358.4 189.7 370.3 c 0
 224.7 395.5 259 422.1 275.8 462.7 c 0
 280.7 473.9 282.8 485.8 282.8 497.7 c 0
 282.8 539 254.8 579.6 209.3 583.8 c 0
 206.5 584.5 203.7 584.5 201.6 584.5 c 0
 161 584.5 133 552.3 95.2002 541.8 c 1xe0
EndSplineSet
Validated: 1
EndChar

StartChar: four
Encoding: 52 52 19
Width: 501
VWidth: 699
Flags: HMW
HStem: -9.8 42<163.1 173.25 163.1 455.7 163.1 173.25> 166.6 61.6<29.4 30.1 30.1 30.1 30.1 242.2>
VStem: 243.6 137.2
LayerCount: 2
Fore
SplineSet
239.4 453.6 m 1
 89.5996 227.5 l 1
 243.6 227.5 l 1
 239.4 453.6 l 1
29.4004 166.6 m 1
 29.4004 207.9 l 1
 30.0996 228.2 l 1
 50.4004 260.4 l 1
 93.7998 325.5 l 1
 229.6 530.6 l 1
 285.6 615.3 l 1
 310.8 652.4 l 1
 329.7 654.5 l 1
 380.1 654.5 l 1
 380.1 342.3 l 1
 380.1 259.7 l 2
 380.1 254.8 378.7 247.1 378.7 240.1 c 0
 378.7 235.2 379.4 231.7 380.8 228.9 c 0
 382.9 226.1 386.4 225.4 389.9 225.4 c 0
 394.8 225.4 400.4 226.8 403.2 228.9 c 1
 418.6 236.6 429.1 253.4 430.5 270.2 c 1
 472.5 270.2 l 1
 460.6 166.6 l 1
 380.1 166.6 l 1
 380.1 149.8 378.7 133 378.7 116.2 c 0
 378.7 100.8 380.1 85.4004 385 70.7002 c 0
 389.2 57.4004 398.3 42 412.3 35.7002 c 0
 416.5 34.2998 422.1 33.5996 428.4 33.5996 c 0
 438.2 33.5996 448 35 455.7 35 c 1
 455.7 -9.7998 l 1
 163.1 -9.7998 l 1
 163.1 32.2002 l 1
 183.4 32.2002 215.6 33.5996 231 49.7002 c 0
 238.7 58.0996 240.8 72.0996 242.2 82.5996 c 0
 243.6 91.7002 243.6 100.8 243.6 110.6 c 0
 243.6 128.8 242.2 147.7 242.2 166.6 c 1
 29.4004 166.6 l 1
EndSplineSet
Validated: 1
EndChar

StartChar: five
Encoding: 53 53 20
Width: 501
VWidth: 699
Flags: HMW
HStem: -17.5 49.7 315 132.3<188.65 226.8> 532 107.8<169.4 200.2 200.2 315.7 315.7 322 169.4 169.4>
VStem: 329 113.4<153.65 240.8>
LayerCount: 2
Fore
SplineSet
64.4004 315.7 m 1
 79.7998 395.5 100.8 474.6 117.6 554.4 c 2
 131.6 616.7 l 2
 133 621.6 133.7 635.6 137.9 638.4 c 0
 139.3 639.8 142.1 640.5 144.9 640.5 c 0
 148.4 640.5 151.9 639.8 154.7 639.8 c 2
 200.2 639.8 l 1
 315.7 639.8 l 2
 328.3 639.8 341.6 639.1 354.2 639.1 c 0
 360.5 639.1 366.8 639.1 373.1 639.8 c 0
 389.9 641.2 391.3 659.4 402.5 667.1 c 0
 403.9 667.8 406 668.5 408.1 668.5 c 0
 410.2 668.5 412.3 667.8 414.4 667.8 c 2
 443.1 667.8 l 1
 417.2 532 l 1
 169.4 532 l 1
 164.5 499.1 155.4 465.5 147 433.3 c 1
 166.6 444.5 191.8 447.3 214.9 447.3 c 0
 219.1 447.3 222.6 447.3 226.8 447.3 c 0
 316.4 443.1 405.3 385.7 432.6 297.5 c 0
 438.9 276.5 442.4 252.7 442.4 228.9 c 0
 442.4 191.1 434.7 153.3 417.9 122.5 c 0
 373.8 41.2998 277.2 -16.7998 184.8 -17.5 c 0
 180.6 -17.5 177.1 -17.5 172.9 -17.5 c 0
 142.1 -17.5 112 -15.4004 82.5996 -4.90039 c 0
 69.2998 0 57.4004 7.7002 44.7998 14.7002 c 1
 61.5996 58.0996 l 1
 75.5996 54.5996 89.5996 47.5996 104.3 43.4004 c 0
 127.4 36.4004 153.3 31.5 179.2 31.5 c 0
 196.7 31.5 214.2 34.2998 230.3 39.2002 c 0
 272.3 53.2002 319.9 100.1 328.3 144.9 c 0
 329 148.4 329 151.9 329 155.4 c 0
 329 163.8 327.6 172.2 326.9 179.9 c 0
 322 219.1 308 256.2 280 284.9 c 0
 257.6 306.6 227.5 315 196.7 315 c 0
 180.6 315 164.5 312.9 149.8 309.4 c 0
 140 306.6 130.2 303.8 120.4 300.3 c 0
 116.2 298.2 109.9 294.7 105 294.7 c 1
 105 294.7 l 1
 100.8 294.7 95.9004 298.2 92.4004 300.3 c 2
 64.4004 315.7 l 1
EndSplineSet
Validated: 5
EndChar

StartChar: six
Encoding: 54 54 21
Width: 501
VWidth: 699
Flags: HMW
HStem: -17.5 44.1<224 265.3> 362.6 64.4<262.5 266.7>
VStem: 39.2 119.7 327.6 132.3
LayerCount: 2
Fore
SplineSet
159.6 194.6 m 0
 159.6 287 196.7 362.6 243.6 362.6 c 0
 289.8 362.6 327.6 287 327.6 194.6 c 0
 327.6 101.5 289.8 26.5996 243.6 26.5996 c 0
 196.7 26.5996 159.6 101.5 159.6 194.6 c 0
202.3 411.6 m 1
 202.3 413.7 l 0
 202.3 430.5 212.8 450.8 220.5 465.5 c 0
 240.1 504.7 268.8 539 304.5 563.5 c 0
 317.8 572.6 333.2 578.9 347.2 587.3 c 0
 368.9 600.6 411.6 595.7 421.4 625.1 c 0
 423.5 631.4 424.2 638.4 424.2 644.7 c 1
 410.9 646.8 397.6 648.2 384.3 648.2 c 0
 317.8 648.2 250.6 619.5 199.5 579.6 c 0
 157.5 547.4 117.6 506.1 90.2998 459.9 c 0
 55.2998 399.7 39.2002 329 39.2002 259.7 c 0
 39.2002 244.3 39.9004 228.2 42 212.8 c 0
 46.9004 169.4 60.2002 122.5 84 85.4004 c 0
 123.2 25.2002 188.3 -17.5 259.7 -17.5 c 0
 270.9 -17.5 282.8 -16.7998 294.7 -14 c 0
 331.1 -7 361.9 14 387.8 39.9004 c 0
 418.6 70 440.3 109.2 451.5 150.5 c 0
 456.4 170.8 459.2 191.8 459.2 213.5 c 0
 459.2 298.2 418.6 386.4 336.7 415.8 c 0
 317.8 422.8 296.8 426.3 277.2 427 c 0
 275.1 427 l 0
 249.9 427 226.1 420.7 202.3 411.6 c 1
EndSplineSet
Validated: 9
EndChar

StartChar: seven
Encoding: 55 55 22
Width: 501
VWidth: 699
Flags: HMW
HStem: 522.2 112.7<174.65 191.8 186.2 188.3 188.3 191.8 186.2 233.1 186.2 384.3> 641.2 14G<127.4 134.4>
LayerCount: 2
Fore
SplineSet
59.5 452.9 m 1
 60.9004 470.4 67.2002 488.6 70.7002 505.4 c 2
 93.7998 602 l 2
 96.5996 613.2 99.4004 625.1 102.2 637 c 0
 102.9 641.2 102.9 647.5 107.1 650.3 c 0
 111.3 653.1 122.5 655.2 132.3 655.2 c 0
 136.5 655.2 140.7 655.2 143.5 653.8 c 0
 149.1 651 152.6 644 158.2 641.2 c 0
 168.7 636.3 180.6 634.9 191.8 634.9 c 0
 221.2 634.2 250.6 634.2 280.7 634.2 c 0
 340.2 634.2 399.7 634.9 459.2 634.9 c 1
 460.6 626.5 461.3 618.1 461.3 609.7 c 0
 461.3 554.4 427 508.9 407.4 457.8 c 0
 369.6 359.8 339.5 256.2 320.6 152.6 c 0
 312.9 112 307.3 70.7002 303.8 29.4004 c 0
 302.4 18.9004 301.7 8.40039 301.7 -2.09961 c 1
 301.7 -2.09961 l 1
 301.7 -4.2002 301.7 -6.2998 301.7 -9.09961 c 0
 301.7 -11.2002 301.7 -13.2998 300.3 -14.7002 c 0
 298.2 -17.5 294 -16.7998 291.9 -16.7998 c 2
 266.7 -16.7998 l 1
 162.4 -16.7998 l 1
 167.3 24.5 178.5 65.7998 190.4 105.7 c 0
 217 198.8 253.4 291.2 299.6 376.6 c 0
 316.4 406.7 333.2 437.5 350.7 467.6 c 0
 361.9 485.8 375.2 503.3 384.3 522.2 c 1
 233.1 522.2 l 1
 188.3 522.2 l 2
 184.8 522.2 180.6 522.2 176.4 522.2 c 0
 172.9 522.2 169.4 522.2 166.6 520.8 c 0
 137.9 511 117.6 481.6 110.6 452.9 c 1
 59.5 452.9 l 1
EndSplineSet
Validated: 5
EndChar

StartChar: eight
Encoding: 56 56 23
Width: 501
VWidth: 699
Flags: HMW
HStem: -27.3 14.7G<243.25 287> 595 55.3<236.6 262.5 236.6 236.6>
VStem: 357 98<472.85 500.15 472.85 500.5 472.85 500.5>
LayerCount: 2
Fore
SplineSet
189 271.6 m 1
 171.5 248.5 l 1
 161 203 l 1
 157.5 159.6 l 1
 161 112 l 1
 166.6 84 l 1
 196 50.4004 l 1
 238 28 l 1
 283.5 24.5 l 1
 322 43.4004 l 1
 353.5 70 l 1
 364 101.5 l 1
 355.6 148.4 l 1
 343 178.5 l 1
 308 208.6 l 1
 253.4 241.5 l 1
 189 271.6 l 1
192.5 579.6 m 1
 168 547.4 l 1
 161 521.5 l 1
 168 479.5 l 1
 185.5 460.6 l 1
 215.6 432.6 l 1
 252 414.4 l 1
 295.4 385 l 1
 316.4 378 l 1
 341.6 416.5 l 1
 357 446.6 l 1
 357 500.5 l 1
 353.5 537.6 l 1
 341.6 567 l 1
 322 581 l 1
 292.6 589.4 l 1
 262.5 595 l 1
 236.6 595 l 1
 192.5 579.6 l 1
147 300.3 m 1
 107.1 326.9 82.5996 361.2 71.4004 407.4 c 0
 67.2002 424.2 65.0996 443.1 65.0996 461.3 c 0
 65.0996 480.2 67.2002 498.4 72.0996 514.5 c 0
 99.4004 599.9 184.8 650.3 270.2 650.3 c 0
 302.4 650.3 335.3 643.3 364.7 627.9 c 0
 392.7 613.2 420.7 588.7 436.1 560.7 c 0
 448.7 539 455 513.1 455 487.2 c 0
 455 458.5 447.3 429.8 430.5 408.1 c 0
 412.3 385.7 391.3 368.2 367.5 352.1 c 1
 385.7 345.1 403.2 326.9 415.8 312.9 c 0
 451.5 275.8 469.7 225.4 469.7 174.3 c 0
 469.7 133.7 457.8 93.7998 434.7 60.2002 c 0
 392.7 -0.700195 322.7 -27.2998 251.3 -27.2998 c 0
 235.2 -27.2998 218.4 -25.9004 202.3 -23.0996 c 0
 145.6 -13.2998 92.4004 19.5996 66.5 72.0996 c 0
 56 91.7002 51.7998 114.1 51.7998 136.5 c 0
 51.7998 191.8 79.7998 249.2 121.8 281.4 c 0
 129.5 287.7 137.2 296.1 147 300.3 c 1
EndSplineSet
Validated: 1
EndChar

StartChar: nine
Encoding: 57 57 24
Width: 501
VWidth: 699
Flags: HMW
HStem: 582.4 61.6
VStem: 311.5 144.9<348.95 406 406 420 348.95 458.5 348.95 458.5>
LayerCount: 2
Fore
SplineSet
211.4 582.4 m 1
 183.4 554.4 l 1
 175 477.4 l 1
 166.6 428.4 l 1
 173.6 372.4 l 1
 185.5 327.6 l 1
 208.6 288.4 l 1
 241.5 266 l 1
 278.6 266 l 1
 301 280 l 1
 311.5 346.5 l 1
 311.5 406 l 1
 311.5 458.5 l 1
 297.5 514.5 l 1
 274.4 567 l 1
 248.5 584.5 l 1
 211.4 582.4 l 1
293.3 222.6 m 1
 283.5 219.8 275.8 212.1 265.3 209.3 c 0
 249.9 205.1 233.1 203 216.3 203 c 0
 198.1 203 179.2 205.8 162.4 211.4 c 0
 78.4004 241.5 36.4004 329 36.4004 415.1 c 0
 36.4004 437.5 39.9004 459.9 45.5 481.6 c 0
 54.5996 514.5 72.0996 545.3 94.5 571.9 c 0
 126.7 610.4 173.6 644.7 226.1 644.7 c 0
 228.2 644.7 229.6 644.7 231.7 644.7 c 0
 255.5 643.3 281.4 639.1 304.5 630.7 c 0
 413.7 591.5 456.4 475.3 456.4 364.7 c 0
 456.4 333.2 452.9 302.4 446.6 274.4 c 0
 422.8 165.2 347.2 67.9004 245.7 20.2998 c 0
 194.6 -4.2002 137.9 -15.4004 81.9004 -15.4004 c 1
 81.9004 -4.90039 84 5.59961 86.0996 15.4004 c 0
 86.7998 18.9004 86.0996 24.5 88.2002 27.2998 c 0
 92.4004 32.2002 110.6 30.7998 116.9 31.5 c 0
 137.2 35 156.8 42.7002 175 53.2002 c 0
 221.2 80.5 262.5 125.3 281.4 175.7 c 0
 287 191.1 293.3 205.8 293.3 222.6 c 1
EndSplineSet
Validated: 1
EndChar

StartChar: colon
Encoding: 58 58 25
Width: 541
VWidth: 699
Flags: HMW
VStem: 117.6 200.9<447.3 448 448 448>
LayerCount: 2
Fore
SplineSet
214.9 184.8 m 1
 226.8 176.4 237.3 163.8 247.8 153.3 c 2
 292.6 109.9 l 2
 298.9 103.6 316.4 92.4004 318.5 83.2998 c 0
 319.2 80.5 315.7 77.7002 314.3 75.5996 c 1
 308.7 70.7002 303.8 64.4004 298.2 59.5 c 2
 240.8 0.700195 l 2
 236.6 -4.2002 226.8 -18.9004 219.8 -18.9004 c 0
 216.3 -18.9004 214.2 -15.4004 212.1 -13.2998 c 2
 193.2 4.90039 l 1
 119.7 79.7998 l 1
 119.7 80.5 l 1
 214.9 184.8 l 1
214.9 551.6 m 1
 234.5 532.7 l 1
 294.7 474.6 l 1
 314.3 455.7 l 1
 318.5 448 l 1
 305.2 434.7 l 1
 266.7 397.6 l 1
 230.3 360.5 l 1
 217 348.6 l 1
 208.6 354.9 l 1
 191.8 372.4 l 1
 117.6 447.3 l 1
 117.6 448 l 1
 214.9 551.6 l 1
EndSplineSet
Validated: 1
EndChar

StartChar: semicolon
Encoding: 59 59 26
Width: 426
VWidth: 699
Flags: W
HStem: 458.5 173.6<128.156 240.014>
VStem: 97.2998 172.2<489.811 602.763>
LayerCount: 2
Fore
SplineSet
172.9 631.4 m 0
 176.4 632.1 179.9 632.1 184.1 632.1 c 0
 191.1 632.1 198.1 631.4 205.1 629.3 c 0
 247.1 619.5 269.5 581.7 269.5 544.6 c 0
 269.5 515.9 256.2 487.9 228.2 471.1 c 0
 217.7 464.8 206.5 460.6 194.6 459.2 c 0
 191.1 458.5 187.6 458.5 184.1 458.5 c 0
 134.4 458.5 97.2998 502.6 97.2998 548.1 c 0
 97.2998 564.9 102.9 581.7 113.4 597.1 c 0
 120.4 605.5 128.1 613.2 137.2 618.8 c 0
 148.4 625.8 160.3 630 172.9 631.4 c 0
22.4004 -166.6 m 1
 44.7998 -96.5996 62.2998 -24.5 81.9004 46.9004 c 2
 100.1 112 l 2
 103.6 123.2 105.7 135.1 112 144.9 c 0
 123.9 161.7 140 163.8 157.5 163.8 c 0
 163.1 163.8 168.7 163.1 174.3 163.1 c 0
 180.6 163.1 187.6 163.8 193.9 163.8 c 0
 199.5 163.8 205.1 163.1 210 163.1 c 1
 217.7 161.7 236.6 163.1 240.8 155.4 c 0
 242.9 151.9 242.9 146.3 242.9 142.1 c 0
 242.9 139.3 242.9 137.2 242.9 135.1 c 0
 242.9 109.2 226.8 86.0996 214.9 63 c 0
 203.7 41.2998 188.3 20.2998 174.3 0 c 2
 106.4 -102.9 l 1
 77 -147.7 l 2
 73.5 -152.6 69.2998 -162.4 63.7002 -165.2 c 0
 62.2998 -165.9 60.2002 -166.6 58.0996 -166.6 c 0
 55.2998 -166.6 53.2002 -166.6 51.7998 -166.6 c 2
 22.4004 -166.6 l 1
EndSplineSet
Validated: 1
EndChar

StartChar: less
Encoding: 60 60 27
Width: 782
VWidth: 699
Flags: W
HStem: -2.7998 21G<663.25 692.3>
LayerCount: 2
Fore
SplineSet
691.6 621.6 m 1
 692.3 599.9 l 1
 692.3 554.4 l 1
 690.9 532.7 l 1
 676.9 525.7 l 1
 647.5 513.1 l 1
 550.2 470.4 l 1
 317.1 367.5 l 1
 242.2 333.9 l 1
 201.6 317.1 l 1
 210 308 226.8 303.8 238 298.2 c 0
 263.2 287.7 287.7 275.8 312.2 263.9 c 2
 568.4 144.2 l 1
 656.6 103.6 l 2
 665 99.4004 673.4 95.9004 681.8 91.7002 c 0
 684.6 90.2998 689.5 88.9004 690.9 86.0996 c 1
 693 84 693 80.5 693 76.2998 c 0
 693 70.7002 692.3 65.0996 692.3 61.5996 c 2
 692.3 -2.7998 l 1
 634.2 21 578.2 51.0996 520.8 77.7002 c 2
 207.9 224.7 l 1
 121.8 265.3 l 2
 113.4 268.8 95.9004 273 91.7002 280.7 c 1
 90.2998 282.1 90.2998 284.2 90.2998 286.3 c 0
 90.2998 288.4 90.2998 291.2 90.2998 292.6 c 2
 90.2998 323.4 l 2
 90.2998 328.3 89.5996 336 89.5996 342.3 c 0
 89.5996 346.5 89.5996 350 91 352.8 c 0
 92.4004 356.3 98.7002 357.7 102.2 359.1 c 2
 131.6 372.4 l 1
 249.2 424.2 l 1
 540.4 553.7 l 1
 637.7 597.1 l 2
 655.2 604.8 674.8 611.8 691.6 621.6 c 1
EndSplineSet
Validated: 1
EndChar

StartChar: equal
Encoding: 61 61 28
Width: 854
VWidth: 699
Flags: HMW
HStem: 162.4 74.9<122.5 783.3 122.5 783.3> 360.5 75.6
VStem: 122.5 660.8<162.4 237.3 162.4 237.3 162.4 436.8 162.4 436.8>
LayerCount: 2
Fore
SplineSet
122.5 237.3 m 1
 783.3 237.3 l 1
 783.3 162.4 l 1
 122.5 162.4 l 1
 122.5 237.3 l 1
122.5 436.8 m 1
 786.8 436.8 l 1
 786.8 360.5 l 1
 122.5 360.5 l 1
 122.5 436.8 l 1
EndSplineSet
Validated: 1
EndChar

StartChar: greater
Encoding: 62 62 29
Width: 782
VWidth: 699
Flags: W
HStem: -2.7998 21G<90.2998 99.3999>
LayerCount: 2
Fore
SplineSet
90.2998 621.6 m 1
 147 597.8 201.6 568.4 257.6 542.5 c 2
 545.3 407.4 l 1
 656.6 355.6 l 2
 665 351.4 673.4 347.2 682.5 343.7 c 1
 686 341.6 690.9 340.2 691.6 336 c 1
 693.7 331.1 693.7 324.8 693.7 318.5 c 0
 693.7 305.9 692.3 293.3 692.3 282.8 c 0
 692.3 280 693 276.5 693 272.3 c 0
 693 269.5 692.3 266.7 690.9 264.6 c 0
 686.7 257.6 666.4 252.7 658 249.2 c 2
 567.7 208.6 l 1
 257.6 70.7002 l 1
 144.2 20.2998 l 2
 126 12.5996 108.5 3.5 90.2998 -2.7998 c 1
 90.2998 60.2002 l 1
 92.4004 84.7002 l 1
 102.2 90.2998 l 1
 127.4 101.5 l 1
 222.6 143.5 l 1
 462 248.5 l 1
 537.6 282.1 l 1
 584.5 302.4 l 1
 584.5 303.1 l 1
 543.2 321.3 l 1
 468.3 356.3 l 1
 219.8 472.5 l 1
 126.7 515.9 l 1
 102.2 527.8 l 1
 91.7002 533.4 l 1
 90.2998 557.2 l 1
 90.2998 621.6 l 1
EndSplineSet
Validated: 1
EndChar

StartChar: question
Encoding: 63 63 30
Width: 465
VWidth: 699
Flags: W
HStem: -39.2002 172.2<174.958 283.87>
VStem: 143.5 170.1<-9.62478 102.995> 179.2 76.2998<179.587 306.979> 303.8 80.5<433.699 501.12 480.2 533.241>
LayerCount: 2
Fore
SplineSet
223.3 133 m 0xc0
 226.1 133 228.9 133 231.7 133 c 0
 272.3 133 308.7 96.5996 312.9 57.4004 c 0
 312.9 54.5996 313.6 51.7998 313.6 48.2998 c 0
 313.6 6.2998 283.5 -32.9004 240.1 -38.5 c 0
 236.6 -39.2002 232.4 -39.2002 228.2 -39.2002 c 0
 220.5 -39.2002 212.8 -38.5 205.8 -36.4004 c 0
 165.9 -25.2002 143.5 10.5 143.5 46.9004 c 0
 143.5 71.4004 153.3 95.9004 174.3 113.4 c 0
 188.3 126 205.1 130.2 223.3 133 c 0xc0
91.7002 758.1 m 2
 91.7002 758.1 92.4004 758.1 93.0996 758.1 c 0
 102.9 758.1 110.6 744.1 117.6 738.5 c 0
 133 725.2 147 718.2 167.3 715.4 c 0
 214.9 707.7 262.5 715.4 307.3 693.7 c 0
 369.6 663.6 384.3 587.3 384.3 524.3 c 0
 384.3 495.6 380.8 467.6 367.5 442.4 c 0
 343 395.5 301.7 364 270.9 322 c 0
 256.9 302.4 255.5 274.4 255.5 249.2 c 0
 255.5 243.6 255.5 238 255.5 232.4 c 0
 255.5 226.8 256.2 219.1 256.2 212.1 c 0
 256.2 205.8 256.2 199.5 253.4 195.3 c 1
 245.7 179.2 216.3 172.2 198.8 172.2 c 0
 198.1 172.2 198.1 172.2 197.4 172.2 c 0
 182 172.2 179.2 191.8 179.2 204.4 c 0
 179.2 205.1 179.2 205.8 179.2 205.8 c 2
 179.9 240.1 183.4 277.2 200.9 307.3 c 0
 220.5 343 246.4 374.5 270.2 407.4 c 0
 281.4 422.8 296.1 440.3 302.4 459.2 c 0
 303.1 462 303.8 465.5 303.8 469 c 0xb0
 303.8 472.5 303.1 476.7 303.1 480.2 c 0
 303.1 515.9 287.7 538.3 253.4 550.9 c 0
 220.5 562.8 180.6 558.6 145.6 562.8 c 0
 123.9 565.6 105.7 568.4 90.2998 585.2 c 0
 68.5996 609.7 59.5 648.2 59.5 683.2 c 0
 59.5 693.7 60.2002 703.5 61.5996 712.6 c 0
 63.7002 723.1 64.4004 745.5 73.5 752.5 c 0
 77.7002 756.7 85.4004 757.4 91.7002 758.1 c 2
EndSplineSet
Validated: 1
EndChar

StartChar: at
Encoding: 64 64 31
Width: 1055
VWidth: 699
Flags: W
HStem: -170.1 53.8994<432.634 700.993> 54.5996 494.9<453.6 566.3> 54.5996 50.4004<718.112 827.207> 725.2 67.8994<445.954 716.62>
VStem: 53.9004 104.3<155.05 403.1> 312.2 119<217 289.1> 947.1 60.2002<269.265 496.768>
LayerCount: 2
Fore
SplineSet
431.2 282.8 m 1x9e
 431.2 289.1 l 0
 431.2 382.2 548.1 486.5 568.4 490 c 0
 582.4 494.2 595 496.3 604.8 496.3 c 0
 646.8 496.3 658.7 463.4 658.7 423.5 c 0
 658.7 382.9 646.8 335.3 641.2 305.2 c 1
 641.2 206.5 553.7 98 504 98 c 0
 502.6 98 501.2 98 499.8 98 c 0
 448 98 422.1 144.9 422.1 210.7 c 0
 422.1 233.1 425.6 257.6 431.2 282.8 c 1x9e
848.4 -92.4004 m 1
 809.2 -109.2 771.4 -127.4 730.1 -140 c 0
 660.8 -161.7 590.8 -170.1 518 -170.1 c 0
 429.8 -170.1 342.3 -140.7 267.4 -93.7998 c 0
 206.5 -56.7002 154.7 -0.700195 117.6 60.2002 c 0
 75.5996 129.5 53.9004 211.4 53.9004 293.3 c 0
 53.9004 355.6 66.5 417.9 92.4004 474.6 c 0
 117.6 529.2 156.1 575.4 198.1 617.4 c 0
 249.2 668.5 308 714.7 374.5 745.5 c 0
 442.4 777 514.5 788.9 589.4 792.4 c 0
 597.8 792.4 606.2 793.1 614.6 793.1 c 0
 690.2 793.1 767.2 777.7 830.2 735.7 c 0
 878.5 703.5 914.2 657.3 942.9 607.6 c 0
 970.2 560 990.5 508.2 1000.3 454.3 c 0
 1005.2 423.5 1007.3 392.7 1007.3 361.9 c 0
 1007.3 356.3 1007.3 350.7 1007.3 345.8 c 0
 1007.3 335.3 1007.3 324.8 1005.2 314.3 c 0
 997.5 272.3 975.1 233.1 953.4 197.4 c 0
 936.6 169.4 919.1 140.7 896.7 117.6 c 0
 856.1 76.2998 807.8 54.5996 753.2 54.5996 c 0xbe
 743.4 54.5996 732.9 55.2998 722.4 57.4004 c 0
 704.2 59.5 684.6 63 669.2 72.0996 c 0
 644.7 86.7998 628.6 109.9 613.2 133 c 1
 603.4 111.3 576.1 93.0996 555.8 81.9004 c 0
 525.7 64.4004 489.3 54.5996 453.6 54.5996 c 0
 421.4 54.5996 389.2 63 362.6 81.9004 c 0
 345.1 94.5 328.3 111.3 321.3 132.3 c 0
 312.2 158.2 312.2 189.7 312.2 217 c 2
 312.2 220.5 l 2
 312.2 263.2 317.1 305.9 331.8 345.8 c 0
 341.6 372.4 356.3 396.2 371 420 c 0
 389.9 450.1 411.6 479.5 439.6 501.9 c 0
 473.9 529.9 521.5 549.5 566.3 549.5 c 0xde
 602.7 549.5 637.7 536.9 664.3 506.8 c 0
 671.3 498.4 679.7 489.3 684.6 479.5 c 1
 691.6 494.2 691.6 515.9 695.1 532.7 c 1
 794.5 532.7 l 1
 776.3 440.3 751.8 349.3 730.1 257.6 c 2
 712.6 180.6 l 2
 709.8 172.2 704.2 158.2 704.2 148.4 c 0
 704.2 147 704.2 145.6 704.2 144.9 c 0
 705.6 139.3 711.9 133.7 715.4 129.5 c 0
 729.4 113.4 748.3 105 769.3 105 c 0
 770 105 770 105 770.7 105 c 0xbe
 814.8 105.7 851.2 144.2 875.7 177.1 c 0
 919.8 236.6 947.1 311.5 947.1 385.7 c 0
 947.1 411.6 943.6 436.8 937.3 462 c 0
 927.5 497.7 912.8 532 892.5 564.2 c 0
 840.7 645.4 750.4 704.9 655.2 721 c 0
 637 723.8 618.8 725.2 601.3 725.2 c 0
 581 725.2 561.4 723.8 541.8 722.4 c 0
 517.3 721 491.4 719.6 467.6 714 c 0
 412.3 700.7 363.3 665 320.6 627.9 c 0
 282.8 595.7 248.5 557.9 223.3 515.2 c 0
 193.9 466.2 180.6 412.3 170.8 357 c 0
 165.9 329 159.6 301 158.2 273 c 0
 158.2 267.4 158.2 261.8 158.2 255.5 c 0
 158.2 180.6 179.2 105.7 225.4 45.5 c 0
 308 -62.2998 441.7 -116.2 574.7 -116.2 c 0
 611.1 -116.2 646.8 -112 681.8 -104.3 c 0
 719.6 -96.5996 756 -83.2998 791.7 -66.5 c 0
 805 -60.2002 817.6 -51.0996 831.6 -44.7998 c 1
 848.4 -92.4004 l 1
EndSplineSet
Validated: 9
EndChar

StartChar: holam
Encoding: 257 1465 32
Width: 308
VWidth: 699
Flags: W
HStem: -15.4004 21G<182 188.3> 703.5 114.8<160.094 247.8>
VStem: 143.5 116.2<716.574 801.705> 186.9 69.2998<171.5 340.195>
LayerCount: 2
Fore
SplineSet
198.1 818.3 m 0xe0
 200.2 818.3 201.6 818.3 203 818.3 c 0
 207.9 818.3 212.8 817.6 217.7 816.9 c 0
 245.7 810.6 259.7 786.1 259.7 762.3 c 0
 259.7 735.7 243.6 708.4 212.8 704.2 c 0
 209.3 703.5 206.5 703.5 203 703.5 c 0
 189.7 703.5 175.7 707.7 165.2 716.1 c 0
 151.2 727.3 143.5 745.5 143.5 763 c 0
 143.5 777.7 149.1 791.7 159.6 802.2 c 0
 170.1 812.7 183.4 816.2 198.1 818.3 c 0xe0
182 -15.4004 m 1
 182 46.2002 186.9 109.2 186.9 171.5 c 0
 186.9 239.4 180.6 306.6 154.7 370.3 c 0
 140 407.4 114.8 438.2 83.2998 462.7 c 0
 65.7998 476.7 35.7002 485.1 31.5 509.6 c 0
 30.7998 513.8 30.7998 518.7 30.7998 523.6 c 0
 30.7998 557.9 47.5996 595.7 65.7998 623 c 0
 72.0996 633.5 79.7998 647.5 91.7002 653.1 c 0
 98.7002 657.3 107.1 658.7 116.2 658.7 c 0
 135.1 658.7 155.4 651 170.1 641.9 c 0
 219.8 612.5 242.2 553 250.6 498.4 c 0
 254.8 469.7 256.2 439.6 256.2 409.5 c 0xd0
 256.2 391.3 255.5 373.1 254.8 354.9 c 0
 252 287 247.8 219.8 241.5 151.9 c 0
 237.3 113.4 234.5 74.9004 231.7 37.0996 c 0
 231 26.5996 230.3 15.4004 228.9 4.90039 c 0
 228.2 1.40039 229.6 -3.5 226.8 -6.2998 c 0
 217.7 -16.7998 194.6 -13.2998 182 -15.4004 c 1
EndSplineSet
Validated: 1
EndChar

StartChar: enc-89
Encoding: 258 -1 33
Width: 0
VWidth: 699
Flags: HMW
HStem: 0.7 0.7
LayerCount: 2
Fore
SplineSet
2.09961 0.700195 m 1
 0.700195 2.09961 l 1
 2.09961 0.700195 l 1
EndSplineSet
Validated: 521
EndChar

StartChar: enc-90
Encoding: 259 -1 34
Width: 0
VWidth: 699
Flags: HMW
HStem: 0.7 0.7
LayerCount: 2
Fore
SplineSet
2.09961 0.700195 m 1
 0.700195 2.09961 l 1
 2.09961 0.700195 l 1
EndSplineSet
Validated: 521
EndChar

StartChar: bracketright
Encoding: 93 93 35
Width: 387
VWidth: 699
Flags: W
HStem: -207.9 48.3008<42 203> 634.9 46.8994<42 203>
VStem: 203 96.5996<-159.6 634.9>
LayerCount: 2
Fore
SplineSet
42 681.8 m 1
 299.6 681.8 l 1
 299.6 -207.9 l 1
 42 -207.9 l 1
 42 -159.6 l 1
 203 -159.6 l 1
 203 634.9 l 1
 42 634.9 l 1
 42 681.8 l 1
EndSplineSet
Validated: 1
EndChar

StartChar: backslash
Encoding: 92 92 36
Width: 385
VWidth: 699
Flags: HMW
HStem: 0 14.7G<269.5 370.3 269.5 269.5>
LayerCount: 2
Fore
SplineSet
0 815.5 m 1
 80.5 815.5 l 2
 84 815.5 91.7002 816.9 98 816.9 c 0
 102.9 816.9 107.1 816.2 109.2 814.1 c 0
 112.7 810.6 113.4 801.5 115.5 796.6 c 2
 130.9 748.3 l 1
 184.8 579.6 l 1
 370.3 0 l 1
 269.5 0 l 1
 266 24.5 253.4 49.7002 245.7 72.7998 c 2
 198.8 214.9 l 1
 69.2998 606.9 l 1
 23.7998 742.7 l 2
 16.0996 766.5 5.59961 791 0 815.5 c 1
EndSplineSet
Validated: 1
EndChar

StartChar: bracketleft
Encoding: 91 91 37
Width: 387
VWidth: 699
Flags: W
HStem: -207.9 48.3008<183.4 345.8> 634.9 49.6992<183.4 345.8>
VStem: 85.4004 98<-159.6 634.9>
LayerCount: 2
Fore
SplineSet
85.4004 684.6 m 1
 345.8 684.6 l 1
 345.8 634.9 l 1
 183.4 634.9 l 1
 183.4 -159.6 l 1
 345.8 -159.6 l 1
 345.8 -207.9 l 1
 85.4004 -207.9 l 1
 85.4004 684.6 l 1
EndSplineSet
Validated: 1
EndChar

StartChar: circumflex
Encoding: 260 710 38
Width: 538
VWidth: 699
Flags: W
LayerCount: 2
Fore
SplineSet
18.2002 297.5 m 1
 21.7002 311.5 30.7998 326.2 36.4004 339.5 c 2
 74.9004 422.8 l 1
 183.4 662.9 l 1
 221.9 747.6 l 2
 224.7 753.9 230.3 774.2 237.3 775.6 c 0
 242.9 777 249.2 777 255.5 777 c 0
 267.4 777 279.3 775.6 290.5 775.6 c 0
 293.3 775.6 296.8 776.3 300.3 776.3 c 0
 303.8 776.3 306.6 775.6 308 774.2 c 0
 316.4 765.8 321.3 746.9 326.2 735.7 c 2
 368.9 641.9 l 1
 472.5 412.3 l 1
 506.1 339.5 l 2
 511.7 326.2 520.8 311.5 524.3 297.5 c 1
 504.7 298.2 485.1 298.2 465.5 298.2 c 0
 462.7 298.2 457.1 297.5 452.2 297.5 c 0
 448.7 297.5 445.9 298.2 443.8 299.6 c 0
 437.5 303.8 433.3 320.6 430.5 327.6 c 2
 398.3 399.7 l 1
 312.2 592.9 l 1
 284.2 655.2 l 2
 280 665 274.4 674.1 272.3 684.6 c 1
 270.2 684.6 l 1
 268.1 674.1 262.5 665 258.3 655.2 c 2
 230.3 592.9 l 1
 144.2 399.7 l 1
 112 327.6 l 2
 109.2 320.6 105 303.8 98.7002 299.6 c 0
 96.5996 298.2 93.7998 297.5 90.2998 297.5 c 0
 85.4004 297.5 79.7998 298.2 77 298.2 c 0
 57.4004 298.2 37.7998 298.2 18.2002 297.5 c 1
EndSplineSet
Validated: 1
EndChar

StartChar: hyphen
Encoding: 45 45 39
Width: 501
VWidth: 699
Flags: HMW
HStem: 230.3 154.7<109.9 174.3 109.9 109.9 174.3 279.3 279.3 343 35.7 417.2>
LayerCount: 2
Fore
SplineSet
35.7002 385 m 1
 279.3 385 l 1
 343 385 l 1
 366.8 384.3 l 1
 371.7 373.1 l 1
 380.8 343 l 1
 417.2 230.3 l 1
 174.3 230.3 l 1
 109.9 230.3 l 1
 86.0996 231.7 l 1
 81.9004 242.2 l 1
 72.0996 271.6 l 1
 35.7002 385 l 1
EndSplineSet
Validated: 1
EndChar

StartChar: afii57664
Encoding: 224 1488 40
Width: 541
VWidth: 699
Flags: HMW
HStem: 464.1 172.9
VStem: 62.3 74.9 442.4 57.4
LayerCount: 2
Fore
SplineSet
107.8 634.9 m 5
 107.8 694.4 128.8 758.1 155.4 810.6 c 4
 163.8 828.1 173.6 851.9 188.3 865.2 c 4
 205.1 879.9 233.8 888.3 260.4 888.3 c 4
 279.3 888.3 297.5 884.1 310.1 875 c 4
 322.7 865.9 332.5 858.9 335.3 842.8 c 5
 335.3 839.3 336 835.8 336 833 c 4
 336 800.8 310.1 780.5 284.9 763 c 4
 255.5 742.7 224 721.7 198.1 695.8 c 4
 184.8 682.5 172.9 667.1 163.8 649.6 c 4
 162.4 646.1 158.2 639.8 158.2 634.9 c 4
 158.2 634.2 158.2 632.8 158.9 632.1 c 4
 160.3 630 162.4 629.3 165.2 629.3 c 4
 168.7 629.3 172.2 630 175 630 c 4
 191.8 630 207.9 630.7 224.7 632.8 c 4
 243.6 634.9 263.9 636.3 284.9 636.3 c 4
 323.4 636.3 363.3 630.7 395.5 613.9 c 4
 450.1 585.9 476 520.8 488.6 463.4 c 4
 496.3 428.4 500.5 391.3 500.5 353.5 c 4
 500.5 254.1 472.5 151.9 411.6 77 c 4
 392 52.5 365.4 26.5996 332.5 22.4004 c 4
 330.4 22.4004 327.6 22.4004 325.5 22.4004 c 4
 310.8 22.4004 293.3 26.5996 284.2 36.4004 c 4
 277.2 42.7002 274.4 57.4004 274.4 69.2998 c 4
 274.4 74.2002 274.4 78.4004 275.8 81.9004 c 4
 278.6 91 287 93.7998 294.7 98.7002 c 4
 306.6 105.7 318.5 113.4 329.7 121.8 c 4
 364 147.7 393.4 179.2 413.7 217 c 4
 432.6 251.3 442.4 290.5 442.4 329 c 4
 442.4 341.6 441.7 353.5 439.6 365.4 c 4
 434.7 395.5 421.4 424.9 395.5 442.4 c 4
 365.4 463.4 331.1 466.2 296.1 466.2 c 4
 287.7 466.2 278.6 465.5 270.2 465.5 c 4
 249.9 465.5 230.3 465.5 210 464.1 c 4
 208.6 464.1 207.9 464.1 206.5 464.1 c 4
 204.4 464.1 202.3 464.1 200.2 464.1 c 4
 196.7 464.1 193.2 463.4 190.4 462 c 4
 182.7 458.5 175.7 443.1 170.8 436.8 c 4
 155.4 417.2 138.6 393.4 137.2 368.2 c 4
 137.2 367.5 137.2 366.1 137.2 364.7 c 4
 137.2 351.4 141.4 337.4 144.2 324.8 c 4
 157.5 264.6 174.3 204.4 182.7 142.8 c 4
 185.5 126 189 105 189 86.0996 c 4
 189 76.2998 188.3 67.2002 186.2 59.5 c 4
 182.7 46.9004 172.2 33.5996 164.5 23.0996 c 4
 156.8 13.2998 148.4 2.7998 139.3 -5.59961 c 4
 132.3 -11.2002 125.3 -16.0996 117.6 -20.2998 c 4
 109.9 -23.7998 98.7002 -29.4004 88.9004 -29.4004 c 4
 84 -29.4004 80.5 -28 77 -25.9004 c 5
 68.5996 -18.9004 65.7998 0.700195 65.7998 10.5 c 4
 65.7998 39.9004 64.4004 69.2998 64.4004 98 c 4
 64.4004 144.9 63 191.8 62.2998 238 c 4
 62.2998 243.6 62.2998 249.9 62.2998 255.5 c 4
 62.2998 296.8 64.4004 336.7 76.2998 377.3 c 4
 82.5996 398.3 91.7002 417.9 103.6 436.8 c 4
 109.2 445.9 119 454.3 123.2 463.4 c 5
 102.2 464.1 67.2002 469.7 51.7998 485.1 c 4
 43.4004 493.5 40.5996 505.4 37.7998 516.6 c 4
 33.5996 530.6 32.2002 545.3 32.2002 560 c 4
 32.2002 571.2 32.9004 583.1 35 594.3 c 4
 37.0996 605.5 39.2002 620.9 48.2998 628.6 c 4
 56 634.9 67.2002 636.3 79.0996 636.3 c 4
 88.9004 636.3 99.4004 634.9 107.8 634.9 c 5
EndSplineSet
Validated: 1
EndChar

StartChar: afii57665
Encoding: 225 1489 41
Width: 465
VWidth: 699
Flags: HMW
HStem: -27.3 14.7G<66.85 78.75> 480.2 156.8<235.9 236.6 236.6 250.25>
VStem: 58.1 55.3 346.5 78.4
LayerCount: 2
Fore
SplineSet
293.3 473.2 m 1
 277.2 478.1 259 480.2 241.5 480.2 c 0
 230.3 480.2 219.8 479.5 209.3 478.1 c 0
 197.4 476.7 186.2 473.2 174.3 472.5 c 0
 172.9 472.5 170.8 472.5 169.4 472.5 c 0
 155.4 472.5 141.4 475.3 127.4 477.4 c 0
 110.6 479.5 91.7002 476 77.7002 487.2 c 0
 57.4004 504 51.7998 529.9 51.7998 557.2 c 0
 51.7998 584.5 57.4004 612.5 58.0996 634.9 c 0
 58.7998 651.7 56 679.7 69.2998 693 c 0
 74.2002 697.9 82.5996 699.3 91.7002 699.3 c 0
 99.4004 699.3 107.8 697.9 113.4 697.9 c 1
 114.8 663.6 142.1 642.6 174.3 638.4 c 0
 187.6 637 201.6 637 215.6 637 c 0
 236.6 637 l 0
 241.5 637 246.4 637 252 637 c 0
 301 635.6 350 634.9 399.7 634.9 c 1
 396.9 597.8 385.7 558.6 372.4 524.3 c 0
 366.8 510.3 363.3 496.3 358.4 482.3 c 0
 356.3 475.3 351.4 466.2 351.4 458.5 c 0
 351.4 457.8 351.4 457.8 351.4 457.1 c 0
 352.8 445.2 364 431.9 368.9 420.7 c 0
 382.2 392.7 396.9 365.4 408.8 336.7 c 0
 419.3 310.8 425.6 282.1 425.6 254.1 c 0
 425.6 236.6 423.5 219.1 418.6 203 c 0
 409.5 170.8 388.5 137.9 368.2 110.6 c 0
 310.8 34.2998 215.6 -8.40039 122.5 -21.7002 c 0
 106.4 -23.7998 87.5 -27.2998 70 -27.2998 c 0
 63.7002 -27.2998 57.4004 -26.5996 51.7998 -25.9004 c 0
 43.4004 -23.7998 31.5 -21.7002 28.7002 -12.5996 c 0
 25.9004 -0.700195 24.5 13.2998 24.5 27.2998 c 0
 24.5 35.7002 25.2002 44.0996 25.9004 51.7998 c 0
 29.4004 77.7002 30.0996 120.4 53.2002 137.9 c 0
 58.7998 141.4 65.7998 140.7 72.0996 140.7 c 0
 83.2998 141.4 95.2002 140.7 105.7 142.1 c 0
 114.1 143.5 122.5 143.5 130.9 143.5 c 0
 142.8 143.5 154.7 142.8 166.6 142.8 c 0
 205.1 142.8 246.4 143.5 284.9 153.3 c 0
 301 157.5 332.5 163.8 341.6 179.2 c 0
 345.1 184.8 346.5 190.4 346.5 196 c 0
 346.5 205.8 343 215.6 337.4 224.7 c 0
 322 252.7 296.8 273 272.3 293.3 c 0
 265.3 298.9 248.5 308 245.7 317.1 c 2
 245 317.8 245 319.2 245 320.6 c 0
 245 324.1 246.4 327.6 246.4 330.4 c 0
 248.5 343 250.6 355.6 255.5 367.5 c 0
 269.5 401.8 286.3 436.8 293.3 473.2 c 1
EndSplineSet
Validated: 33
EndChar

StartChar: afii57666
Encoding: 226 1490 42
Width: 426
VWidth: 699
Flags: HMW
HStem: 107.8 87.5<145.95 271.95>
VStem: 300.3 57.4<26.95 32.2 32.2 57.4 57.4 60.2>
LayerCount: 2
Fore
SplineSet
296.8 142.8 m 1
 300.3 154 301 164.5 301 175 c 0
 301 191.8 298.2 207.9 296.8 225.4 c 0
 289.8 296.1 278.6 383.6 226.8 436.8 c 0
 210 453.6 190.4 470.4 168 480.2 c 0
 149.8 489.3 123.2 494.9 115.5 516.6 c 0
 114.1 520.1 113.4 523.6 113.4 527.8 c 0
 113.4 534.8 114.8 541.8 115.5 548.1 c 0
 119.7 580.3 131.6 610.4 152.6 634.9 c 0
 159.6 643.3 172.2 659.4 183.4 660.8 c 0
 186.9 661.5 189.7 661.5 192.5 661.5 c 0
 238.7 661.5 280 623 310.1 592.2 c 0
 349.3 552.3 353.5 485.1 354.9 432.6 c 0
 357 332.5 357.7 232.4 357.7 132.3 c 2
 357.7 32.2002 l 2
 357.7 21.7002 354.9 0.700195 345.1 -4.90039 c 1
 343 -7 340.2 -7 337.4 -7 c 0
 335.3 -7 333.2 -7 331.8 -7 c 2
 300.3 -7 l 1
 300.3 57.4004 l 2
 300.3 63 301 70 301 76.2998 c 0
 301 80.5 301 84 299.6 87.5 c 0
 295.4 102.2 280 107.8 263.9 107.8 c 0
 249.9 107.8 234.5 102.9 226.8 95.9004 c 0
 195.3 68.5996 186.9 21 149.8 -1.40039 c 0
 133.7 -11.2002 116.2 -15.4004 98 -15.4004 c 0
 75.5996 -15.4004 53.2002 -9.09961 32.9004 1.40039 c 0
 14.7002 11.9004 -2.09961 23.0996 -5.59961 44.7998 c 1
 16.7998 52.5 37.0996 67.9004 46.9004 90.2998 c 0
 56.7002 112.7 55.2998 135.8 72.0996 155.4 c 0
 79.7998 163.8 88.2002 171.5 97.2998 177.8 c 0
 115.5 190.4 135.8 195.3 156.1 195.3 c 0
 205.1 195.3 256.2 166.6 296.8 142.8 c 1
EndSplineSet
Validated: 1
EndChar

StartChar: afii57667
Encoding: 227 1491 43
Width: 501
VWidth: 699
Flags: HMW
HStem: 472.5 162.4
VStem: 370.3 58.1<413.7 449.05>
LayerCount: 2
Fore
SplineSet
44.7998 694.4 m 1
 88.2002 694.4 l 1
 92.4004 674.8 104.3 648.2 123.2 639.8 c 0
 135.8 634.9 149.8 633.5 164.5 633.5 c 0
 179.2 633.5 193.2 634.9 205.8 634.9 c 2
 374.5 634.9 l 1
 443.1 634.9 l 2
 447.3 634.9 450.8 634.9 453.6 634.9 c 0
 461.3 634.9 467.6 633.5 471.1 624.4 c 0
 476 611.8 478.8 598.5 478.8 585.2 c 0
 478.8 560 470.4 534.8 456.4 514.5 c 0
 447.3 501.2 431.2 497 427.7 480.2 c 0
 426.3 476 426.3 471.8 426.3 466.9 c 0
 426.3 454.3 429.1 441 429.1 429.1 c 0
 429.1 428.4 429.1 427.7 428.4 427 c 1
 428.4 400.4 423.5 373.1 418.6 347.2 c 0
 404.6 264.6 376.6 184.1 359.8 102.2 c 0
 354.2 73.5 345.8 44.7998 336.7 17.5 c 0
 333.2 6.2998 329.7 -9.09961 322 -18.2002 c 0
 316.4 -25.2002 303.8 -28.7002 292.6 -28.7002 c 0
 287 -28.7002 282.8 -28 279.3 -26.5996 c 0
 269.5 -22.4004 261.1 -14.7002 253.4 -8.40039 c 0
 231 10.5 198.8 38.5 198.8 70.7002 c 0
 198.8 71.4004 198.8 71.4004 198.8 72.0996 c 0
 199.5 112.7 222.6 151.9 241.5 186.9 c 2
 332.5 359.8 l 2
 346.5 386.4 370.3 416.5 370.3 447.3 c 0
 370.3 450.8 371 455 371 459.9 c 0
 371 462.7 371 465.5 369.6 467.6 c 0
 367.5 472.5 354.9 471.8 350 472.5 c 0
 336.7 473.9 321.3 475.3 307.3 475.3 c 0
 299.6 475.3 291.9 474.6 284.9 473.9 c 0
 272.3 472.5 259 473.2 245.7 472.5 c 0
 211.4 470.4 177.1 468.3 142.8 466.9 c 0
 136.5 466.2 130.2 466.2 123.2 466.2 c 0
 98.7002 466.2 72.0996 469 52.5 483 c 0
 33.5996 496.3 30.7998 524.3 30.0996 545.3 c 0
 30.0996 550.2 30.0996 555.1 30.0996 559.3 c 0
 30.0996 604.8 39.2002 648.9 44.7998 694.4 c 1
EndSplineSet
Validated: 1
EndChar

StartChar: afii57668
Encoding: 228 1492 44
Width: 580
VWidth: 699
Flags: HMW
HStem: 464.1 165.2<133 225.75>
VStem: 483 55.3
LayerCount: 2
Fore
SplineSet
105 354.9 m 1
 109.2 304.5 128.1 248.5 165.2 214.2 c 0
 179.9 200.2 200.2 190.4 217.7 181.3 c 0
 245.7 166.6 287 165.2 308.7 140 c 0
 317.8 129.5 317.8 116.2 319.2 102.9 c 0
 319.9 88.2002 320.6 72.7998 320.6 58.0996 c 0
 320.6 42 319.9 26.5996 316.4 11.9004 c 0
 314.3 0.700195 310.8 -17.5 301 -24.5 c 0
 296.1 -28 288.4 -28 282.8 -28.7002 c 0
 278.6 -28.7002 273.7 -29.4004 269.5 -29.4004 c 0
 254.8 -29.4004 240.1 -26.5996 226.8 -21.7002 c 0
 198.8 -11.2002 168.7 4.90039 147 25.2002 c 0
 91.7002 76.2998 65.7998 154 58.7998 226.8 c 0
 58.0996 240.8 57.4004 254.8 57.4004 268.8 c 0
 57.4004 287.7 58.0996 305.9 60.9004 323.4 c 0
 61.5996 330.4 61.5996 350 66.5 354.2 c 1
 67.9004 354.9 70 354.9 72.0996 354.9 c 0
 74.2002 354.9 76.2998 354.9 77.7002 354.9 c 2
 105 354.9 l 1
66.5 690.2 m 1
 69.2998 692.3 74.9004 691.6 77.7002 691.6 c 0
 81.2002 691.6 85.4004 691.6 89.5996 691.6 c 0
 96.5996 691.6 103.6 690.9 108.5 686 c 0
 115.5 679.7 112.7 671.3 117.6 664.3 c 0
 129.5 644 149.1 633.5 172.2 631.4 c 0
 184.1 630 196 629.3 208.6 629.3 c 0
 242.9 629.3 277.2 632.8 311.5 632.8 c 0
 360.5 632.8 408.1 626.5 449.4 594.3 c 0
 480.2 570.5 497 533.4 510.3 497.7 c 0
 529.9 445.9 537.6 389.2 537.6 333.2 c 0
 537.6 297.5 534.8 261.8 529.2 227.5 c 0
 524.3 200.2 518.7 173.6 511 147 c 0
 506.8 131.6 503.3 117.6 487.9 109.2 c 0
 483 106.4 476.7 105 469.7 105 c 0
 454.3 105 437.5 112 429.1 122.5 c 0
 424.2 128.8 422.1 137.2 422.1 144.9 c 0
 422.1 149.1 422.8 152.6 423.5 156.8 c 0
 428.4 177.1 443.8 196.7 454.3 214.9 c 0
 466.2 235.9 474.6 259 478.8 282.8 c 0
 481.6 296.1 483 310.1 483 324.1 c 0
 483 333.2 482.3 342.3 480.9 350.7 c 0
 478.8 363.3 475.3 376.6 469.7 387.8 c 0
 434.7 458.5 352.1 466.2 279.3 466.2 c 0
 261.1 466.2 243.6 465.5 227.5 465.5 c 0
 208.6 465.5 189.7 464.8 170.8 464.8 c 0
 162.4 464.8 152.6 464.1 143.5 464.1 c 0
 122.5 464.1 101.5 466.2 82.5996 476 c 0
 56 489.3 50.4004 511 47.5996 538.3 c 0
 46.2002 548.8 46.2002 558.6 46.2002 568.4 c 0
 46.2002 591.5 48.2998 615.3 53.2002 637.7 c 0
 55.2998 651 58.0996 663.6 61.5996 676.9 c 0
 63 680.4 63.7002 687.4 66.5 690.2 c 1
EndSplineSet
Validated: 1
EndChar

StartChar: afii57669
Encoding: 229 1493 45
Width: 308
VWidth: 699
Flags: HMW
HStem: 641.9 14G<103.95 111.65>
VStem: 177.8 69.3
LayerCount: 2
Fore
SplineSet
172.2 -16.7998 m 1
 172.2 46.2002 177.8 110.6 177.8 174.3 c 0
 177.8 238 172.2 301 149.1 361.9 c 0
 134.4 401.1 109.2 434 77 459.9 c 0
 58.0996 476 25.2002 485.1 22.4004 512.4 c 0
 22.4004 514.5 22.4004 517.3 22.4004 520.1 c 0
 22.4004 555.1 42 595 60.2002 623 c 0
 69.2998 637.7 78.4004 651 96.5996 654.5 c 0
 99.4004 655.2 102.2 655.9 105.7 655.9 c 0
 117.6 655.9 129.5 651 140.7 645.4 c 0
 172.9 630 203 604.8 220.5 573.3 c 0
 230.3 557.2 234.5 536.2 238.7 517.3 c 0
 245 485.1 247.8 452.2 247.8 420 c 0
 247.8 410.2 247.1 400.4 247.1 390.6 c 0
 242.9 301 244.3 210.7 235.2 120.4 c 0
 232.4 89.5996 231.7 58.7998 227.5 28 c 0
 226.1 18.9004 226.1 0 219.8 -7 c 0
 212.1 -15.4004 195.3 -16.7998 182 -16.7998 c 0
 178.5 -16.7998 175 -16.7998 172.2 -16.7998 c 1
EndSplineSet
Validated: 1
EndChar

StartChar: afii57670
Encoding: 230 1494 46
Width: 270
VWidth: 699
Flags: W
VStem: 44.7998 197.4<471.375 511.7 511.7 582.562> 91.7002 83.2998<20.1175 379.211>
LayerCount: 2
Fore
SplineSet
198.1 651.7 m 0x80
 212.1 651.7 215.6 628.6 218.4 619.5 c 0
 227.5 591.5 242.2 560 242.2 529.9 c 0x80
 242.2 523.6 241.5 517.3 240.1 511.7 c 0
 231.7 475.3 202.3 451.5 178.5 425.6 c 0
 166.6 413 153.3 399.7 149.8 382.2 c 0
 149.1 378 148.4 373.8 148.4 370.3 c 0
 148.4 353.5 155.4 338.8 160.3 322.7 c 0
 165.9 304.5 169.4 284.9 171.5 265.3 c 0
 174.3 247.8 175 229.6 175 211.4 c 0
 175 166.6 169.4 121.1 164.5 75.5996 c 0
 161.7 52.5 158.2 32.9004 149.8 10.5 c 0
 144.9 -2.09961 138.6 -16.7998 125.3 -23.0996 c 0
 119.7 -25.9004 112.7 -26.5996 105.7 -26.5996 c 0
 101.5 -26.5996 98 -26.5996 94.5 -26.5996 c 1
 91 -25.9004 84.7002 -25.9004 82.5996 -23.0996 c 0
 81.9004 -21.7002 81.2002 -19.5996 81.2002 -17.5 c 0
 81.2002 -14.7002 81.9004 -11.9004 81.9004 -9.7998 c 0
 83.2998 -0.700195 83.2998 9.09961 84 18.2002 c 0
 89.5996 65.7998 91 116.2 91.7002 164.5 c 0x40
 91.7002 242.9 91 320.6 75.5996 398.3 c 0
 69.2998 429.8 59.5 459.2 51.7998 490 c 0
 48.2998 504.7 44.7998 520.1 44.7998 534.8 c 0
 44.7998 540.4 45.5 545.3 46.2002 550.2 c 0
 50.4004 571.2 65.7998 583.1 80.5 595.7 c 0
 113.4 624.4 151.2 651.7 196 651.7 c 0
 196.7 651.7 197.4 651.7 198.1 651.7 c 0x80
EndSplineSet
Validated: 1
EndChar

StartChar: afii57671
Encoding: 231 1495 47
Width: 541
VWidth: 699
Flags: HMW
HStem: 468.3 167.3<176.4 245.35 223.65 304.85>
VStem: 450.1 58.1<312.2 334.25>
LayerCount: 2
Fore
SplineSet
112.7 460.6 m 1
 94.5 464.1 66.5 480.9 58.7998 498.4 c 0
 55.2998 507.5 56.7002 518.7 55.2998 527.8 c 0
 54.5996 537.6 54.5996 546.7 54.5996 555.8 c 0
 54.5996 578.9 56.7002 602 58.7998 625.1 c 0
 60.2002 642.6 63 660.1 65.0996 677.6 c 0
 65.7998 681.8 65.7998 692.3 70 693.7 c 0
 73.5 695.1 77.7002 695.1 81.2002 695.1 c 0
 88.9004 695.1 96.5996 694.4 102.2 694.4 c 0
 105.7 694.4 110.6 695.1 113.4 693 c 0
 119.7 688.1 123.2 671.3 127.4 664.3 c 0
 137.9 648.2 152.6 644 170.1 640.5 c 0
 191.8 636.3 212.8 635.6 234.5 635.6 c 0
 256.2 635.6 277.9 636.3 299.6 636.3 c 0
 317.1 636.3 334.6 635.6 352.1 633.5 c 0
 378 629.3 406.7 622.3 427 604.8 c 0
 459.2 576.1 477.4 528.5 488.6 487.9 c 0
 501.2 443.1 508.2 394.8 508.2 345.8 c 0
 508.2 278.6 495.6 210.7 467.6 151.9 c 0
 444.5 102.9 414.4 53.2002 361.9 32.2002 c 0
 347.9 27.2998 333.9 24.5 319.2 23.0996 c 0
 316.4 23.0996 312.9 22.4004 310.1 22.4004 c 0
 307.3 22.4004 304.5 23.0996 301.7 24.5 c 0
 294 28.7002 290.5 36.4004 286.3 43.4004 c 0
 282.1 50.4004 279.3 55.2998 279.3 61.5996 c 0
 279.3 63 279.3 65.0996 280 67.2002 c 0
 286.3 101.5 325.5 112 351.4 128.8 c 0
 379.4 147 403.9 176.4 420 205.8 c 0
 440.3 243.6 450.1 287 450.1 329.7 c 0
 450.1 338.8 449.4 347.9 448.7 357 c 0
 445.9 385 440.3 410.9 420 432.6 c 0
 403.9 450.1 380.8 458.5 357.7 462.7 c 0
 336.7 466.9 315.7 468.3 294 468.3 c 0
 272.3 468.3 250.6 466.9 228.9 465.5 c 0
 225.4 465.5 221.9 465.5 219.1 465.5 c 0
 208.6 465.5 198.8 466.2 189 466.9 c 0
 185.5 466.9 181.3 468.3 177.1 468.3 c 0
 175.7 468.3 175 468.3 173.6 467.6 c 1
 168 466.2 164.5 447.3 162.4 442.4 c 0
 155.4 422.1 147.7 401.8 147.7 380.1 c 0
 147.7 373.1 148.4 366.1 150.5 358.4 c 0
 158.2 329.7 160.3 298.2 166.6 269.5 c 0
 175.7 224 188.3 177.8 193.9 132.3 c 0
 195.3 117.6 199.5 99.4004 199.5 83.2998 c 0
 199.5 76.2998 198.8 70 196.7 64.4004 c 0
 194.6 55.2998 188.3 46.2002 183.4 39.2002 c 0
 166.6 12.5996 142.8 -13.2998 112.7 -24.5 c 0
 107.1 -26.5996 99.4004 -29.4004 92.4004 -29.4004 c 0
 91 -29.4004 89.5996 -28.7002 88.9004 -28.7002 c 0
 76.2998 -26.5996 63.7002 -9.09961 60.9004 2.7998 c 1
 60.9004 4.2002 60.2002 6.2998 60.2002 7.7002 c 0
 60.2002 11.9004 61.5996 16.0996 61.5996 20.2998 c 0
 61.5996 32.9004 61.5996 45.5 62.2998 58.0996 c 0
 64.4004 88.9004 63 119 65.0996 149.8 c 0
 68.5996 200.2 69.2998 250.6 72.7998 301.7 c 0
 74.9004 327.6 74.9004 355.6 80.5 380.8 c 0
 86.7998 408.8 101.5 434.7 112.7 460.6 c 1
EndSplineSet
Validated: 9
EndChar

StartChar: afii57672
Encoding: 232 1496 48
Width: 619
VWidth: 699
Flags: HMW
HStem: -22.4 166.6
VStem: 159.6 53.2 529.9 54.6<298.9 347.2 284.2 352.8>
LayerCount: 2
Fore
SplineSet
274.4 462.7 m 1
 268.8 471.8 261.8 490.7 261.8 503.3 c 0
 261.8 505.4 261.8 506.8 261.8 508.2 c 1
 264.6 520.1 281.4 534.1 289.1 543.2 c 2
 356.3 627.2 l 1
 385.7 662.9 l 2
 389.2 667.1 393.4 674.8 398.3 676.2 c 0
 399.7 676.9 401.1 676.9 402.5 676.9 c 0
 408.1 676.9 415.1 674.8 420 673.4 c 0
 441 669.2 461.3 659.4 477.4 644.7 c 0
 506.8 616.7 525.7 578.2 544.6 543.2 c 0
 551.6 530.6 559.3 517.3 564.2 503.3 c 0
 574.7 471.1 578.2 433.3 581.7 399.7 c 0
 583.8 379.4 584.5 357.7 584.5 336.7 c 0
 584.5 231.7 557.2 121.8 482.3 46.9004 c 0
 467.6 31.5 452.2 16.7998 433.3 6.2998 c 0
 396.2 -16.0996 351.4 -23.7998 308 -23.7998 c 0
 295.4 -23.7998 283.5 -23.0996 271.6 -22.4004 c 0
 255.5 -21 240.1 -17.5 225.4 -12.5996 c 2
 221.2 -11.9004 213.5 -7 207.9 -7 c 0
 205.8 -7 l 1
 198.1 -9.7998 195.3 -25.9004 193.9 -32.9004 c 0
 191.8 -48.2998 189.7 -62.2998 185.5 -77.7002 c 0
 183.4 -85.4004 181.3 -95.2002 175.7 -100.8 c 0
 173.6 -102.2 171.5 -102.9 169.4 -102.9 c 0
 166.6 -102.9 163.8 -102.2 161.7 -102.2 c 0
 149.1 -100.8 136.5 -98.7002 124.6 -98 c 1
 144.9 -18.2002 154.7 65.0996 158.2 147.7 c 0
 158.9 161.7 159.6 175.7 159.6 189 c 0
 159.6 250.6 153.3 311.5 136.5 370.3 c 0
 129.5 393.4 122.5 419.3 109.9 440.3 c 0
 99.4004 458.5 83.2998 473.9 70 490 c 0
 60.2002 500.5 49.7002 511 39.9004 520.8 c 0
 35.7002 525 28.7002 529.9 26.5996 535.5 c 1
 26.5996 536.9 26.5996 538.3 26.5996 539.7 c 0
 26.5996 542.5 27.2998 546.7 27.2998 549.5 c 0
 30.0996 578.2 45.5 603.4 60.9004 627.2 c 0
 67.2002 637 73.5 648.2 81.9004 655.9 c 0
 91 665 104.3 672.7 117.6 672.7 c 0
 122.5 672.7 126.7 672 130.9 669.9 c 0
 138.6 666.4 143.5 655.2 147 648.2 c 0
 156.8 630 165.9 611.1 172.2 590.8 c 0
 194.6 523.6 207.9 450.8 212.8 380.1 c 0
 217.7 304.5 217 228.9 222.6 153.3 c 1
 243.6 151.9 263.9 146.3 284.9 144.2 c 0
 300.3 142.1 317.1 141.4 333.2 141.4 c 0
 377.3 141.4 422.1 149.1 457.8 177.1 c 0
 504.7 212.8 529.9 270.2 529.9 327.6 c 0
 529.9 378 510.3 428.4 468.3 462 c 0
 455.7 472.5 441 480.9 425.6 487.2 c 0
 411.6 492.8 394.8 497 379.4 497 c 2
 378 497 l 2
 340.9 496.3 308 476.7 274.4 462.7 c 1
EndSplineSet
Validated: 1
EndChar

StartChar: afii57673
Encoding: 233 1497 49
Width: 270
VWidth: 699
Flags: HMW
VStem: 19.6 238<502.6 571.9>
LayerCount: 2
Fore
SplineSet
98 687.4 m 1
 97.2998 688.1 l 1
 98 687.4 l 1
54.5996 681.8 m 1
 97.2998 687.4 l 1
 96.5996 683.2 95.2002 679.7 95.2002 675.5 c 0
 95.2002 674.8 95.9004 673.4 95.9004 672.7 c 0
 97.2998 664.3 100.1 651.7 105 644.7 c 0
 126.7 611.8 175 604.1 207.2 586.6 c 0
 231 573.3 251.3 551.6 256.2 524.3 c 0
 257.6 518 257.6 512.4 257.6 506.1 c 0
 257.6 499.1 256.9 491.4 256.9 484.4 c 0
 252 412.3 224 343 179.2 287 c 0
 169.4 274.4 158.9 262.5 147.7 252 c 0
 142.1 246.4 136.5 241.5 129.5 241.5 c 0
 127.4 241.5 126 241.5 123.2 242.9 c 0
 118.3 245 112.7 252.7 109.2 256.9 c 2
 105 260.4 98.7002 265.3 97.2998 270.2 c 0
 97.2998 270.9 97.2998 270.9 97.2998 271.6 c 0
 97.2998 275.8 102.9 279.3 105 282.1 c 1
 113.4 290.5 121.8 300.3 130.2 310.1 c 0
 149.1 333.2 173.6 367.5 173.6 401.1 c 0
 173.6 408.8 172.9 416.5 169.4 424.2 c 0
 165.2 434 144.2 441 135.1 445.2 c 0
 105.7 457.8 72.7998 467.6 47.5996 488.6 c 0
 26.5996 506.1 19.5996 530.6 19.5996 556.5 c 0
 19.5996 587.3 29.4004 620.2 39.9004 645.4 c 0
 44.0996 657.3 51.0996 669.2 54.5996 681.8 c 1
EndSplineSet
Validated: 1
EndChar

StartChar: afii57674
Encoding: 234 1498 50
Width: 465
VWidth: 699
Flags: W
HStem: 468.3 159.601<147 334.587>
VStem: 28 378<487.328 588.36> 282.1 88.2002<107.8 377.576> 284.2 140<-239.4 -147>
LayerCount: 2
Fore
SplineSet
335.3 468.3 m 1xa0
 147 468.3 l 2
 135.1 468.3 123.2 467.6 111.3 467.6 c 0
 92.4004 467.6 73.5 469.7 57.4004 480.9 c 0
 28.7002 499.8 28 525 28 556.5 c 2
 28 557.9 l 2xc0
 28 583.1 29.4004 607.6 32.2002 632.8 c 0
 33.5996 645.4 35 658 37.0996 670.6 c 2
 37.0996 674.8 37.0996 682.5 39.9004 686 c 0
 42 688.8 49 688.1 52.5 688.8 c 0
 64.4004 690.2 76.2998 691.6 88.2002 694.4 c 1
 95.9004 640.5 149.1 627.9 193.9 627.9 c 2
 194.6 627.9 l 2
 222.6 627.9 254.8 633.5 285.6 633.5 c 0
 316.4 633.5 346.5 627.9 370.3 605.5 c 0xa0
 378.7 597.8 385 588 390.6 578.2 c 0
 396.9 567 400.4 553.7 403.2 540.4 c 0
 405.3 529.9 406 519.4 406 508.9 c 0xc0
 406 440.3 370.3 373.1 370.3 303.8 c 0
 370.3 295.4 l 0xa0
 373.1 240.1 380.8 185.5 387.8 130.2 c 0
 394.1 74.9004 400.4 18.9004 407.4 -37.0996 c 0
 412.3 -74.2002 416.5 -110.6 420 -147.7 c 0
 421.4 -163.1 424.2 -178.5 424.2 -193.2 c 0
 424.2 -195.3 424.2 -197.4 424.2 -199.5 c 0
 422.1 -242.2 403.2 -280 373.1 -310.1 c 0
 354.2 -329 336 -341.6 309.4 -341.6 c 0
 305.2 -341.6 l 0
 289.8 -340.9 284.9 -309.4 284.2 -297.5 c 0
 283.5 -290.5 283.5 -283.5 283.5 -277.2 c 0
 283.5 -264.6 284.2 -251.3 284.2 -239.4 c 0x90
 284.2 -208.6 282.8 -177.8 282.8 -147 c 0
 282.8 -61.5996 282.1 23.0996 282.1 107.8 c 2
 282.1 123.9 l 2
 282.1 207.9 282.8 291.2 302.4 374.5 c 0
 310.1 407.4 322.7 437.5 335.3 468.3 c 1xa0
EndSplineSet
Validated: 9
EndChar

StartChar: afii57675
Encoding: 235 1499 51
Width: 465
VWidth: 699
Flags: HMW
HStem: 476 167.3<179.9 234.85>
VStem: 357.7 57.4<342.3 369.25>
LayerCount: 2
Fore
SplineSet
77 708.4 m 0
 79.0996 708.4 81.9004 709.1 83.2998 707 c 0
 85.4004 704.9 85.4004 698.6 86.0996 695.1 c 0
 87.5 688.1 89.5996 680.4 93.0996 673.4 c 0
 102.2 658.7 123.2 651.7 139.3 648.2 c 0
 155.4 644 171.5 643.3 188.3 643.3 c 0
 200.9 643.3 213.5 644 226.8 644 c 0
 249.9 644 273.7 642.6 295.4 633.5 c 0
 321.3 623 343.7 602.7 360.5 581.7 c 0
 399.7 530.6 410.2 464.8 414.4 402.5 c 0
 415.1 390.6 415.1 379.4 415.1 367.5 c 0
 415.1 279.3 392 192.5 341.6 118.3 c 0
 338.8 114.8 338.1 110.6 335.3 107.1 c 0
 289.1 47.5996 217 9.7998 144.9 -6.2998 c 0
 121.1 -11.2002 97.2998 -14 72.7998 -15.4004 c 0
 66.5 -16.0996 58.7998 -16.7998 51.7998 -16.7998 c 0
 43.4004 -16.7998 l 0
 28.7002 -14 28 13.2998 27.2998 24.5 c 0
 26.5996 33.5996 23.0996 44.0996 23.0996 53.9004 c 2
 23.0996 53.9004 23.0996 53.9004 23.0996 54.5996 c 0
 23.0996 70.7002 28 88.9004 29.4004 105.7 c 0
 30.0996 121.8 32.2002 138.6 45.5 149.1 c 0
 60.2002 160.3 81.9004 158.2 99.4004 159.6 c 0
 133.7 161.7 168.7 165.9 202.3 172.2 c 0
 252 182.7 303.1 206.5 332.5 249.9 c 0
 340.2 261.8 346.5 275.1 351.4 288.4 c 0
 354.9 301 355.6 313.6 357 325.5 c 0
 357.7 331.8 357.7 338.8 357.7 345.8 c 0
 357.7 392.7 341.6 445.9 294.7 464.8 c 0
 271.6 473.9 247.1 476 222.6 476 c 0
 194.6 476 165.9 472.5 137.2 472.5 c 0
 130.9 472.5 123.9 473.2 117.6 473.2 c 0
 94.5 475.3 59.5 477.4 40.5996 493.5 c 0
 28.7002 503.3 21.7002 522.2 18.2002 537.6 c 0
 16.0996 548.8 15.4004 560 15.4004 571.2 c 0
 15.4004 596.4 19.5996 622.3 22.4004 647.5 c 0
 23.7998 661.5 25.2002 672.7 29.4004 686.7 c 0
 30.7998 690.9 32.2002 697.2 35 700.7 c 0
 37.0996 703.5 42.7002 703.5 46.9004 704.2 c 0
 56.7002 705.6 66.5 707 77 708.4 c 0
EndSplineSet
Validated: 1
EndChar

StartChar: afii57676
Encoding: 236 1500 52
Width: 387
VWidth: 699
Flags: HMW
VStem: 75.6 65.8 278.6 58.8
LayerCount: 2
Fore
SplineSet
141.4 652.4 m 1
 161.7 650.3 188.3 638.4 205.1 628.6 c 0
 255.5 598.5 294 546 315.7 492.1 c 0
 331.1 452.2 334.6 411.6 336.7 369.6 c 0
 336.7 348.6 l 0
 336.7 242.2 301.7 136.5 233.1 54.5996 c 0
 221.9 40.5996 209.3 25.9004 195.3 15.4004 c 0
 171.5 -3.5 140.7 -17.5 112.7 -28 c 0
 95.9004 -34.2998 74.9004 -39.9004 56 -39.9004 c 0
 51.7998 -39.9004 47.5996 -39.2002 43.4004 -39.2002 c 1
 28 -36.4004 24.5 -11.9004 23.0996 0 c 0
 22.4004 5.59961 21.7002 11.2002 21.7002 16.7998 c 0
 21.7002 38.5 26.5996 61.5996 30.0996 82.5996 c 0
 32.2002 97.2998 33.5996 112 41.2998 125.3 c 0
 49 140 64.4004 142.8 79.7998 145.6 c 0
 100.8 149.8 121.8 154 142.8 159.6 c 0
 164.5 165.9 186.2 172.2 205.1 183.4 c 0
 246.4 209.3 272.3 257.6 277.9 305.2 c 0
 277.9 308.7 278.6 311.5 278.6 315 c 0
 278.6 322 277.9 329.7 276.5 336.7 c 0
 265.3 405.3 203.7 431.9 147 457.8 c 0
 130.2 464.8 114.1 472.5 98 481.6 c 0
 92.4004 485.1 83.2998 488.6 79.7998 494.9 c 0
 73.5 506.1 71.4004 518 71.4004 531.3 c 0
 71.4004 548.1 74.9004 565.6 75.5996 581.7 c 0
 77.7002 629.3 76.2998 678.3 79.7998 725.9 c 0
 80.5 742 83.2998 758.1 83.2998 774.2 c 0
 83.2998 781.9 82.5996 789.6 81.2002 796.6 c 0
 75.5996 825.3 52.5 845.6 32.2002 863.8 c 0
 23.7998 870.1 2.7998 884.1 1.40039 895.3 c 0
 1.40039 897.4 1.40039 900.2 1.40039 903 c 0
 1.40039 924.7 7.7002 948.5 14 968.1 c 0
 16.0996 974.4 16.7998 986.3 22.4004 990.5 c 0
 30.0996 997.5 39.2002 1000.3 48.2998 1000.3 c 0
 71.4004 1000.3 97.2998 983.5 115.5 974.4 c 0
 126 968.8 135.8 963.9 145.6 957.6 c 0
 155.4 950.6 168 942.2 172.9 931 c 0
 175 927.5 175.7 923.3 175.7 917.7 c 0
 175.7 905.8 172.2 890.4 171.5 882.7 c 0
 169.4 868 170.1 866.6 168 851.2 c 0
 159.6 784.7 149.8 718.9 141.4 652.4 c 1
EndSplineSet
Validated: 1
EndChar

StartChar: afii57677
Encoding: 237 1501 53
Width: 580
VWidth: 699
Flags: W
HStem: 470.4 163.8<173.462 398.3>
VStem: 42 85.4004<262.5 382.099>
LayerCount: 2
Fore
SplineSet
70.7002 694.4 m 1
 114.8 697.9 l 1
 111.3 699.3 74.9004 690.9 70.7002 694.4 c 1
58.7998 623.7 m 1
 70.7002 694.4 l 1
 58.7998 623.7 l 1
192.5 462 m 0
 165.2 447.3 144.2 420.7 135.8 390.6 c 2
 125.3 325.5 l 1
 127.4 262.5 l 1
 156.8 210 l 1
 167.3 199.5 l 0
 174.3 193.2 180.6 186.9 186.9 180.6 c 0
 190.4 176.4 193.9 172.9 198.8 170.1 c 0
 202.3 168 206.5 166.6 210.7 165.2 c 0
 217.7 163.1 224 159.6 230.3 156.1 c 0
 233.8 154 237.3 152.6 240.8 151.2 c 1
 305.9 142.8 l 1
 350 140.7 l 1
 400.4 161.7 l 1
 450.8 195.3 l 1
 482.3 237.3 l 1
 499.1 294 l 1
 494.9 367.5 l 1
 476 413.7 l 1
 442.4 453.6 l 1
 398.3 464.1 l 1
 333.2 470.4 l 1
 280.7 470.4 l 1
 252 479.5 219.1 476 192.5 462 c 0
70.7002 694.4 m 1
 114.8 697.9 l 1
 114.8 662.9 142.1 644 175 639.8 c 0
 210.7 635.6 249.2 633.5 285.6 634.2 c 0
 308.7 634.2 332.5 636.3 355.6 634.9 c 0
 382.9 632.8 415.1 630 439.6 617.4 c 0
 463.4 603.4 480.9 582.4 494.9 559.3 c 0
 518.7 520.1 534.1 476.7 541.8 431.9 c 0
 553.7 366.8 552.3 297.5 541.1 232.4 c 0
 527.8 149.8 494.9 66.5 427 14 c 0
 357 -39.9004 248.5 -45.5 172.2 -2.7998 c 0
 135.1 17.5 105 51.0996 84 87.5 c 0
 53.9004 140 44.7998 200.9 42 260.4 c 0
 39.9004 305.9 50.4004 359.8 72.0996 399.7 c 0
 85.4004 424.2 105 444.5 119.7 468.3 c 1
 108.5 470.4 98 473.2 88.2002 478.8 c 0
 55.2998 495.6 45.5 532.7 50.4004 567 c 0
 56 609 67.9004 651.7 70.7002 694.4 c 1
EndSplineSet
Validated: 37
EndChar

StartChar: afii57678
Encoding: 238 1502 54
Width: 619
VWidth: 699
Flags: HMW
HStem: 471.8 186.2<334.95 419.3>
VStem: 163.8 67.2 511.7 59.5<294.7 388.15 298.2 388.15>
LayerCount: 2
Fore
SplineSet
362.6 656.6 m 0
 368.9 657.3 375.2 658 381.5 658 c 0
 457.1 658 514.5 595.7 541.8 527.8 c 0
 562.8 474.6 571.2 417.2 571.2 359.1 c 0
 571.2 326.9 568.4 294 564.2 262.5 c 0
 557.2 207.9 544.6 155.4 517.3 107.1 c 0
 493.5 63.7002 460.6 25.2002 417.2 0.700195 c 0
 399.7 -9.09961 379.4 -18.9004 359.1 -18.9004 c 0
 357 -18.9004 354.9 -18.2002 352.8 -18.2002 c 0
 340.9 -17.5 323.4 -16.7998 314.3 -8.40039 c 0
 301.7 2.7998 301.7 25.9004 300.3 40.5996 c 0
 299.6 44.7998 298.9 49.7002 298.9 53.9004 c 0
 298.9 56.7002 299.6 58.7998 299.6 61.5996 c 1
 301 65.7998 305.2 70 308.7 74.2002 c 0
 324.1 91.7002 347.9 98.7002 369.6 107.1 c 0
 400.4 118.3 429.1 128.8 454.3 151.2 c 0
 495.6 187.6 511.7 240.8 511.7 294.7 c 2
 511.7 298.2 l 2
 511.7 313.6 511 329 507.5 343 c 0
 501.2 366.1 487.2 389.2 473.2 408.1 c 0
 457.8 429.1 439.6 450.1 415.1 459.9 c 0
 393.4 468.3 370.3 471.8 347.9 471.8 c 0
 322 471.8 296.8 466.9 272.3 458.5 c 0
 261.8 454.3 252 450.1 242.2 445.2 c 0
 238.7 443.1 233.1 441 231.7 438.2 c 0
 230.3 436.1 230.3 433.3 230.3 430.5 c 0
 230.3 423.5 232.4 413.7 232.4 408.1 c 0
 232.4 381.5 232.4 354.9 231.7 328.3 c 0
 228.2 254.8 219.1 178.5 195.3 107.8 c 0
 182.7 70.7002 168 30.7998 142.8 0 c 0
 132.3 -13.2998 116.2 -28 99.4004 -31.5 c 0
 95.9004 -32.2002 93.0996 -32.2002 89.5996 -32.2002 c 0
 80.5 -32.2002 70 -30.0996 62.2998 -28 c 0
 49 -24.5 32.9004 -16.7998 27.2998 -4.2002 c 0
 24.5 2.09961 24.5 9.7998 24.5 16.7998 c 0
 24.5 19.5996 24.5 23.0996 24.5 26.5996 c 0
 24.5 27.2998 24.5 29.4004 24.5 30.7998 c 0
 24.5 37.0996 24.5 44.7998 28 50.4004 c 0
 36.4004 64.4004 53.2002 74.9004 65.0996 85.4004 c 0
 84.7002 102.9 103.6 121.8 119.7 142.1 c 0
 152.6 182.7 163.8 242.9 163.8 296.8 c 0
 163.8 310.1 163.1 322.7 162.4 334.6 c 0
 158.2 378 142.8 421.4 112.7 454.3 c 0
 98.7002 469 82.5996 482.3 67.9004 497 c 0
 58.7998 505.4 48.2998 515.9 45.5 529.2 c 2
 44.7998 529.9 44.7998 531.3 44.7998 532.7 c 0
 44.7998 539 47.5996 546.7 49 552.3 c 0
 54.5996 574 64.4004 595 77 613.2 c 0
 85.4004 625.1 94.5 639.8 105.7 648.2 c 0
 112.7 652.4 119 654.5 126 654.5 c 0
 137.9 654.5 149.8 648.2 159.6 640.5 c 0
 186.9 616.7 200.2 583.1 211.4 549.5 c 0
 216.3 534.8 220.5 519.4 224.7 504.7 c 0
 226.1 501.2 226.8 492.1 231.7 492.1 c 0
 232.4 492.1 232.4 492.1 233.1 492.8 c 2
 237.3 494.2 239.4 501.2 240.8 504.7 c 2
 261.1 540.4 l 2
 277.2 569.8 294 599.9 315 625.8 c 0
 322 634.9 331.1 648.9 341.6 653.8 c 0
 347.2 657.3 355.6 655.9 362.6 656.6 c 0
EndSplineSet
Validated: 1
EndChar

StartChar: afii57679
Encoding: 239 1503 55
Width: 308
VWidth: 699
Flags: W
VStem: 112.7 91<61.5947 113.4 113.4 113.4 185.456 322.665> 114.8 140<-262.481 -0.133656>
LayerCount: 2
Fore
SplineSet
182.7 436.8 m 1x80
 165.9 443.8 149.1 452.9 132.3 461.3 c 0
 102.9 474.6 67.9004 489.3 51.7998 519.4 c 0
 42.7002 535.5 42 550.9 40.5996 568.4 c 0
 40.5996 575.4 39.9004 581.7 39.9004 588.7 c 0
 39.9004 613.9 43.4004 639.1 49 662.9 c 0
 51.7998 674.1 55.2998 684.6 59.5 695.1 c 0
 60.9004 698.6 62.2998 704.2 65.7998 707 c 0
 69.2998 709.1 74.9004 708.4 78.4004 709.1 c 0
 89.5996 710.5 100.1 711.9 110.6 711.9 c 1
 117.6 659.4 182 641.2 217 610.4 c 0
 227.5 601.3 240.8 588 244.3 573.3 c 0
 247.8 560.7 248.5 546.7 248.5 532.7 c 0
 248.5 504 243.6 474.6 238.7 448 c 0
 226.8 382.2 207.2 315.7 204.4 249.2 c 0
 203.7 243.6 203.7 238.7 203.7 233.8 c 0x80
 203.7 215.6 205.1 197.4 207.9 179.9 c 0
 210.7 165.2 214.9 151.9 216.3 137.2 c 0
 224.7 63.7002 234.5 -9.09961 242.2 -82.5996 c 0
 245.7 -117.6 253.4 -152.6 254.8 -187.6 c 0
 254.8 -189 254.8 -191.1 254.8 -192.5 c 0
 254.8 -233.1 231.7 -271.6 204.4 -299.6 c 0
 195.3 -308.7 184.8 -319.2 172.9 -324.8 c 0
 162.4 -330.4 148.4 -331.8 137.2 -331.8 c 0
 135.8 -331.8 134.4 -331.8 133 -331.8 c 0
 129.5 -331.8 126.7 -331.1 123.9 -328.3 c 0
 115.5 -319.2 114.8 -301 114.8 -286.3 c 0
 114.8 -282.1 114.8 -278.6 114.8 -275.1 c 0x40
 114.8 -231.7 113.4 -189 113.4 -145.6 c 2
 113.4 113.4 l 2
 113.4 138.6 112.7 163.8 112.7 189 c 0
 112.7 217 114.1 244.3 119 272.3 c 0
 130.2 331.1 163.8 380.8 182.7 436.8 c 1x80
EndSplineSet
Validated: 1
EndChar

StartChar: afii57680
Encoding: 240 1504 56
Width: 347
VWidth: 699
Flags: HMW
VStem: 243.6 53.9<322.35 344.05>
LayerCount: 2
Fore
SplineSet
159.6 651.7 m 0
 160.3 651.7 160.3 651.7 161 651.7 c 0
 175.7 651.7 196 637 207.2 629.3 c 0
 261.1 592.9 280.7 536.2 289.8 474.6 c 0
 294.7 438.2 297.5 401.1 297.5 363.3 c 0
 297.5 249.2 270.9 133.7 193.2 47.5996 c 0
 161.7 11.9004 116.9 -24.5 69.2998 -32.9004 c 0
 60.9004 -34.2998 52.5 -37.7998 44.0996 -37.7998 c 0
 42.7002 -37.7998 42 -37.7998 40.5996 -37.7998 c 0
 22.4004 -35.7002 18.9004 -13.2998 17.5 2.09961 c 0
 16.7998 6.2998 16.7998 10.5 16.7998 14.7002 c 0
 16.7998 39.2002 23.0996 63.7002 25.2002 88.2002 c 0
 26.5996 102.9 28 122.5 35.7002 135.1 c 0
 42 143.5 51.7998 144.9 61.5996 147 c 0
 79.7998 152.6 98.7002 157.5 116.9 164.5 c 0
 154.7 178.5 195.3 196.7 217.7 232.4 c 0
 227.5 247.8 232.4 265.3 237.3 282.8 c 0
 241.5 298.2 243.6 314.3 243.6 330.4 c 0
 243.6 357.7 237.3 385 221.2 406.7 c 0
 205.8 426.3 185.5 440.3 163.1 449.4 c 0
 137.9 460.6 110.6 469.7 85.4004 482.3 c 0
 77.7002 486.5 63.7002 490.7 58.0996 499.1 c 0
 53.9004 505.4 53.2002 515.2 52.5 522.9 c 0
 51.7998 525.7 51.7998 528.5 51.7998 532 c 0
 51.7998 561.4 69.2998 592.2 86.0996 615.3 c 0
 92.4004 624.4 98.7002 637 107.8 643.3 c 0
 122.5 652.4 142.8 650.3 159.6 651.7 c 0
EndSplineSet
Validated: 1
EndChar

StartChar: afii57681
Encoding: 241 1505 57
Width: 580
VWidth: 699
Flags: W
HStem: -31.5 174.3<259.978 377.826> 464.1 173.601<193.2 424.329>
VStem: 30.7998 102.9<-120.241 18.1414> 56 48.2998<-32.4819 104.072> 62.2998 61.6006<294 338.1> 74.9004 47.5996<655.73 688.635>
LayerCount: 2
Fore
SplineSet
193.2 464.1 m 1xc8
 168 426.3 l 1
 151.2 396.9 l 1
 132.3 365.4 l 1
 121.8 338.1 l 1
 123.9 294 l 1
 138.6 249.9 l 1
 163.8 203.7 l 1
 189 178.5 l 1
 212.1 165.9 l 1
 233.1 153.3 l 1
 283.5 142.8 l 1
 327.6 140.7 l 1
 369.6 151.2 l 1
 409.5 170.1 l 1
 453.6 212.1 l 1
 474.6 264.6 l 1
 480.9 342.3 l 1
 476.7 386.4 l 1
 464.1 413.7 l 1
 438.9 441 l 1
 405.3 457.8 l 1
 348.6 468.3 l 1
 279.3 466.2 l 1
 193.2 464.1 l 1xc8
107.8 105 m 1
 105 94.5 104.3 84 104.3 72.7998 c 0xd0
 104.3 41.2998 114.1 9.09961 122.5 -20.2998 c 0xc4
 127.4 -38.5 133.7 -56 133.7 -74.2002 c 0
 133.7 -83.2998 132.3 -91.7002 128.8 -100.1 c 0
 119 -124.6 97.2998 -128.1 74.2002 -128.1 c 2
 72.0996 -128.1 l 2
 65.0996 -128.1 54.5996 -128.1 49 -123.9 c 0
 39.9004 -117.6 35 -101.5 32.9004 -91.7002 c 0
 31.5 -84 30.7998 -77 30.7998 -70 c 0xe0
 30.7998 -28 53.2002 14.7002 56 55.2998 c 0xd0
 61.5996 129.5 58.7998 204.4 62.2998 277.9 c 0xc8
 63 302.4 61.5996 327.6 63.7002 352.1 c 1
 64.4004 353.5 64.4004 354.2 64.4004 355.6 c 0
 64.4004 358.4 63.7002 361.2 63.7002 364 c 0
 63.7002 366.1 64.4004 368.9 65.0996 371.7 c 0
 70.7002 394.1 91 417.2 105 435.4 c 0
 109.2 441 121.8 452.2 122.5 459.2 c 0
 122.5 459.9 122.5 459.9 122.5 459.9 c 2
 122.5 466.2 103.6 474.6 99.4004 477.4 c 0
 79.0996 488.6 65.7998 498.4 60.9004 522.2 c 0
 59.5 531.3 58.7998 541.1 58.7998 550.2 c 0
 58.7998 582.4 67.2002 613.9 70.7002 645.4 c 2
 74.9004 676.9 l 2
 74.9004 680.4 74.2002 685.3 77 688.8 c 1
 88.2002 699.3 109.2 693.7 122.5 697.2 c 1xc4
 126.7 683.9 127.4 666.4 137.2 655.2 c 0
 150.5 641.2 168.7 639.8 186.9 638.4 c 0
 198.8 637.7 211.4 637.7 223.3 637.7 c 0
 234.5 637.7 245 637.7 255.5 637.7 c 0
 261.1 637.7 267.4 637.7 273 637.7 c 0
 345.8 637.7 430.5 635.6 478.8 575.4 c 0
 510.3 537.6 520.8 480.9 529.2 433.3 c 0
 535.5 396.9 539 359.1 539 320.6 c 0
 539 228.9 518.7 136.5 464.8 64.4004 c 0
 429.8 18.2002 384.3 -21.7002 325.5 -30.0996 c 0
 315.7 -31.5 306.6 -31.5 296.8 -31.5 c 0
 244.3 -31.5 197.4 -11.2002 161.7 32.2002 c 0
 152.6 43.4004 144.2 55.2998 137.2 67.9004 c 0
 128.8 84 126 97.2998 107.8 105 c 1
EndSplineSet
Validated: 33
EndChar

StartChar: afii57682
Encoding: 242 1506 58
Width: 580
VWidth: 699
Flags: HMW
HStem: -32.9 165.2<101.15 117.6 117.6 140.7 140.7 144.2 144.2 148.75 70.7 153.3>
VStem: 177.8 54.6 482.3 54.6<315 352.1>
LayerCount: 2
Fore
SplineSet
232.4 142.8 m 1
 254.8 144.2 277.2 148.4 299.6 151.9 c 0
 336.7 158.9 376.6 166.6 408.1 188.3 c 0
 451.5 218.4 482.3 280 482.3 338.1 c 0
 482.3 366.1 474.6 394.1 457.8 415.8 c 0
 433.3 448.7 396.9 457.1 359.8 466.2 c 0
 345.1 469.7 330.4 473.9 317.1 480.2 c 0
 312.2 483 305.9 485.1 302.4 490 c 1
 300.3 494.2 298.9 498.4 298.9 503.3 c 0
 298.9 515.2 305.2 527.8 308.7 537.6 c 0
 319.9 570.5 329.7 607.6 352.1 634.9 c 0
 360.5 646.1 369.6 658 385 658.7 c 0
 385.7 658.7 386.4 658.7 387.1 658.7 c 0
 404.6 658.7 417.9 644.7 431.9 634.9 c 0
 480.2 602 511 543.2 525 487.2 c 0
 533.4 452.2 536.9 417.9 536.9 382.2 c 0
 536.9 247.8 482.3 95.9004 357.7 28.7002 c 0
 282.8 -11.9004 196 -32.9004 110.6 -32.9004 c 0
 91.7002 -32.9004 72.7998 -32.9004 53.2002 -31.5 c 0
 46.9004 -30.7998 37.0996 -32.2002 32.2002 -26.5996 c 0
 21.7002 -11.9004 17.5 5.59961 17.5 23.7998 c 0
 17.5 47.5996 23.7998 72.0996 28.7002 92.4004 c 0
 31.5 104.3 32.2002 126 44.7998 132.3 c 0
 46.9004 133 49.7002 133.7 53.2002 133.7 c 0
 58.7998 133.7 65.7998 132.3 70.7002 132.3 c 0
 86.7998 132.3 102.2 132.3 117.6 132.3 c 0
 140.7 132.3 l 0
 142.1 132.3 142.8 132.3 144.2 132.3 c 0
 153.3 132.3 170.8 132.3 175 138.6 c 1
 177.8 141.4 177.8 148.4 177.8 154.7 c 0
 177.8 158.2 177.8 162.4 177.8 165.2 c 0
 177.8 165.9 177.8 166.6 177.8 167.3 c 0
 177.8 172.2 178.5 177.1 178.5 182 c 0
 178.5 217 173.6 251.3 170.8 285.6 c 0
 168.7 322 165.9 357 158.2 392.7 c 0
 155.4 407.4 153.3 423.5 147.7 437.5 c 0
 143.5 447.3 129.5 455 121.8 462 c 0
 100.8 478.8 76.2998 498.4 75.5996 527.8 c 0
 75.5996 528.5 75.5996 529.2 75.5996 529.2 c 2
 75.5996 541.8 79.7998 554.4 82.5996 567 c 0
 88.2002 588 93.0996 609.7 102.9 629.3 c 0
 107.8 638.4 114.1 651.7 123.2 657.3 c 0
 125.3 658.7 128.8 659.4 132.3 659.4 c 0
 140.7 659.4 152.6 655.9 158.2 653.8 c 0
 168.7 650.3 177.1 643.3 185.5 637.7 c 0
 205.8 623 231.7 604.8 240.1 579.6 c 0
 241.5 574.7 242.2 570.5 242.2 565.6 c 0
 242.2 554.4 238.7 543.2 237.3 532 c 0
 233.8 501.9 230.3 472.5 228.2 442.4 c 0
 226.1 403.9 224.7 364.7 224.7 326.2 c 0
 224.7 264.6 227.5 203.7 232.4 142.8 c 1
EndSplineSet
Validated: 1
EndChar

StartChar: afii57683
Encoding: 243 1507 59
Width: 541
VWidth: 699
Flags: HMW
HStem: 491.4 147.7
VStem: 38.5 65.1<315.7 406.7> 340.2 91.7<39.2 206.5 79.8 206.5>
LayerCount: 2
Fore
SplineSet
232.4 639.1 m 0
 235.9 639.8 240.1 639.8 243.6 639.8 c 0
 258.3 639.8 273.7 637 287 634.9 c 0
 343 625.8 396.9 602 441.7 566.3 c 0
 455.7 554.4 469 542.5 480.2 527.8 c 0
 484.4 523.6 490 518 491.4 512.4 c 2
 492.1 511 492.1 508.9 492.1 506.8 c 0
 492.1 502.6 491.4 497.7 490.7 494.2 c 0
 489.3 474.6 484.4 455.7 479.5 437.5 c 0
 464.1 378 443.8 322 436.1 260.4 c 0
 432.6 238.7 431.9 217 431.9 196 c 0
 431.9 151.2 436.8 107.1 443.1 61.5996 c 0
 451.5 -4.90039 462 -70.7002 469.7 -137.2 c 0
 471.8 -158.9 473.2 -180.6 474.6 -202.3 c 0
 474.6 -209.3 476 -216.3 476 -223.3 c 0
 476 -226.1 475.3 -229.6 475.3 -232.4 c 0
 469 -267.4 443.8 -296.1 417.2 -317.1 c 0
 405.3 -326.2 385.7 -344.4 370.3 -345.1 c 0
 369.6 -345.1 368.9 -345.1 368.2 -345.1 c 0
 347.9 -345.1 338.1 -326.9 335.3 -308 c 0
 335.3 -305.2 335.3 -302.4 335.3 -298.9 c 0
 335.3 -289.8 336.7 -280 336.7 -270.2 c 0
 336.7 -236.6 337.4 -202.3 337.4 -168 c 0
 337.4 -99.4004 340.2 -30.0996 340.2 39.2002 c 0
 340.2 55.2998 340.2 71.4004 340.2 88.2002 c 0
 340.2 138.6 341.6 189.7 355.6 238 c 0
 363.3 268.8 373.8 298.2 385 327.6 c 0
 389.9 338.8 401.1 356.3 401.1 368.2 c 0
 401.1 368.9 401.1 368.9 401.1 369.6 c 0
 399.7 389.9 379.4 408.8 364.7 420.7 c 0
 319.9 457.8 270.2 482.3 212.1 489.3 c 0
 201.6 490 188.3 492.8 176.4 492.8 c 0
 171.5 492.8 166.6 492.8 162.4 491.4 c 0
 147.7 485.8 131.6 466.9 122.5 455 c 0
 109.2 437.5 103.6 417.2 103.6 396.2 c 0
 103.6 373.1 111.3 348.6 123.2 328.3 c 0
 136.5 308 155.4 290.5 174.3 275.8 c 0
 193.2 260.4 218.4 249.9 233.8 230.3 c 0
 248.5 211.4 249.2 190.4 252 167.3 c 0
 252.7 161 254.8 152.6 254.8 144.9 c 0
 254.8 142.1 254.8 140 254.1 137.9 c 0
 252.7 133.7 247.1 130.9 244.3 128.8 c 0
 233.1 122.5 221.2 117.6 209.3 114.8 c 0
 199.5 112.7 190.4 112 181.3 112 c 0
 141.4 112 103.6 130.2 78.4004 163.1 c 0
 49.7002 201.6 40.5996 252 39.2002 298.2 c 0
 38.5 305.2 38.5 312.2 38.5 319.2 c 0
 38.5 398.3 58.7998 471.8 102.2 539.7 c 0
 124.6 575.4 155.4 605.5 193.2 624.4 c 0
 205.1 630 219.1 637.7 232.4 639.1 c 0
EndSplineSet
Validated: 1
EndChar

StartChar: afii57684
Encoding: 244 1508 60
Width: 580
VWidth: 699
Flags: HMW
HStem: 465.5 165.2
VStem: 475.3 54.6<300.65 382.2>
LayerCount: 2
Fore
SplineSet
132.3 694.4 m 1
 139.3 678.3 135.8 662.9 150.5 649.6 c 0
 172.9 629.3 207.2 632.8 234.5 630.7 c 0
 293.3 626.5 355.6 633.5 413 615.3 c 0
 490.7 590.8 517.3 496.3 525.7 424.2 c 0
 527.8 410.2 529.2 396.2 529.9 382.2 c 0
 529.9 374.5 530.6 366.1 530.6 358.4 c 0
 530.6 270.2 508.2 175.7 454.3 105 c 0
 413 50.4004 344.4 7.7002 280 -14 c 0
 240.1 -27.2998 195.3 -37.0996 151.9 -37.0996 c 0
 140.7 -37.0996 130.2 -37.0996 119.7 -35.7002 c 0
 105.7 -33.5996 78.4004 -35 70.7002 -20.2998 c 0
 68.5996 -16.0996 67.9004 -11.2002 67.9004 -5.59961 c 0
 67.9004 2.7998 l 0
 67.9004 4.90039 67.9004 6.2998 67.9004 7.7002 c 0
 67.2002 15.4004 66.5 22.4004 66.5 30.0996 c 0
 66.5 51.0996 69.2998 72.7998 74.2002 93.0996 c 0
 76.2998 103.6 79.7998 121.1 90.2998 126.7 c 0
 95.2002 128.8 102.9 129.5 109.9 129.5 c 0
 120.4 129.5 l 0
 121.1 129.5 122.5 129.5 123.2 129.5 c 0
 142.8 130.2 162.4 132.3 182 133 c 0
 255.5 138.6 341.6 139.3 404.6 184.1 c 0
 451.5 217.7 475.3 272.3 475.3 329 c 0
 475.3 336 475.3 343.7 474.6 350.7 c 0
 471.1 385 457.8 420.7 428.4 441 c 0
 410.2 454.3 378 457.8 355.6 460.6 c 0
 333.9 464.1 312.2 465.5 290.5 465.5 c 0
 278.6 465.5 266 464.8 253.4 464.1 c 0
 240.8 462.7 225.4 463.4 214.2 458.5 c 0
 192.5 448.7 170.8 415.8 167.3 392.7 c 0
 167.3 390.6 l 0
 167.3 382.2 173.6 373.8 178.5 367.5 c 0
 191.8 350.7 215.6 336.7 215.6 312.9 c 0
 215.6 312.2 215.6 310.8 215.6 310.1 c 0
 214.9 298.9 208.6 289.8 203 280 c 0
 191.1 260.4 177.8 237.3 156.8 227.5 c 0
 149.8 224 138.6 220.5 129.5 220.5 c 0
 126.7 220.5 123.9 220.5 121.8 221.9 c 2
 108.5 226.8 96.5996 239.4 87.5 249.9 c 0
 70.7002 270.2 58.7998 295.4 58.7998 322 c 0
 58.7998 329.7 59.5 337.4 61.5996 345.1 c 0
 66.5 361.9 75.5996 376.6 86.0996 390.6 c 0
 96.5996 405.3 109.2 417.9 121.1 431.9 c 0
 124.6 436.1 133 442.4 133.7 448 c 0
 133.7 448.7 133.7 448.7 133.7 448.7 c 2
 133.7 459.2 114.8 460.6 107.8 464.1 c 0
 95.2002 469.7 84.7002 485.1 78.4004 497 c 0
 67.9004 515.9 63.7002 536.9 63.7002 558.6 c 0
 63.7002 585.9 70 614.6 74.9004 640.5 c 0
 77 651.7 79.0996 662.9 81.2002 673.4 c 0
 81.9004 677.6 81.9004 683.9 85.4004 686.7 c 0
 88.9004 690.2 96.5996 690.2 100.8 690.2 c 0
 111.3 690.9 122.5 690.2 132.3 694.4 c 1
EndSplineSet
Validated: 1
EndChar

StartChar: afii57685
Encoding: 245 1509 61
Width: 426
VWidth: 699
Flags: HMW
VStem: 125.3 152.6<-177.45 -79.1>
LayerCount: 2
Fore
SplineSet
380.8 694.4 m 1
 389.2 681.1 389.9 658.7 390.6 643.3 c 0
 391.3 637.7 391.3 632.1 391.3 626.5 c 0
 391.3 581 378 534.8 341.6 505.4 c 0
 326.2 493.5 308 484.4 289.8 478.1 c 0
 282.8 476 266.7 473.9 262.5 468.3 c 0
 256.9 460.6 257.6 443.1 256.2 433.3 c 0
 247.1 373.8 243.6 313.6 243.6 253.4 c 0
 243.6 232.4 244.3 210.7 245 189.7 c 0
 245.7 166.6 245 142.8 247.1 119.7 c 0
 249.2 100.1 254.8 80.5 258.3 61.5996 c 0
 268.1 5.59961 277.9 -51.0996 277.9 -107.1 c 0
 277.9 -117.6 277.9 -127.4 277.2 -137.2 c 0
 275.8 -160.3 267.4 -182 259.7 -203 c 0
 249.2 -231.7 237.3 -260.4 224 -287.7 c 0
 217.7 -300.3 210 -312.2 200.9 -323.4 c 0
 197.4 -328.3 193.9 -335.3 188.3 -338.1 c 0
 184.8 -340.2 182 -341.6 179.2 -341.6 c 0
 168.7 -341.6 161.7 -329 156.1 -320.6 c 0
 137.9 -294.7 132.3 -256.9 128.8 -225.4 c 0
 126 -206.5 125.3 -186.9 125.3 -168 c 0
 125.3 -112 133.7 -56.7002 142.8 -0.700195 c 0
 150.5 51.7998 156.8 105 163.1 157.5 c 0
 170.8 222.6 180.6 287.7 188.3 352.8 c 0
 193.2 389.9 194.6 429.8 203 465.5 c 1
 149.1 465.5 85.4004 473.9 46.9004 516.6 c 0
 27.2998 537.6 20.2998 566.3 20.2998 595.7 c 0
 20.2998 612.5 23.0996 630 26.5996 645.4 c 0
 30.7998 660.1 39.9004 683.9 53.2002 691.6 c 1
 53.9004 691.6 54.5996 691.6 55.2998 691.6 c 0
 61.5996 691.6 72.0996 677.6 75.5996 674.1 c 0
 97.2998 655.9 122.5 643.3 149.8 637.7 c 0
 170.8 632.8 193.2 630 216.3 630 c 0
 245.7 630 274.4 634.2 300.3 643.3 c 0
 328.3 653.8 358.4 674.8 380.8 694.4 c 1
EndSplineSet
Validated: 1
EndChar

StartChar: afii57686
Encoding: 246 1510 62
Width: 387
VWidth: 699
Flags: W
VStem: 282.1 55.3008<242.769 402.679>
LayerCount: 2
Fore
SplineSet
156.8 625.1 m 1
 177.1 622.3 200.9 621.6 219.8 613.2 c 0
 293.3 580.3 321.3 501.9 331.8 427.7 c 0
 335.3 400.4 337.4 372.4 337.4 344.4 c 0
 337.4 250.6 315 156.8 262.5 78.4004 c 0
 233.8 35.7002 186.9 -7.7002 137.2 -25.2002 c 0
 123.2 -30.0996 107.8 -31.5 93.0996 -32.9004 c 0
 82.5996 -34.2998 71.4004 -36.4004 60.2002 -36.4004 c 0
 56.7002 -36.4004 53.9004 -36.4004 50.4004 -35.7002 c 0
 37.0996 -33.5996 32.2002 -7 30.7998 4.2002 c 0
 29.4004 10.5 29.4004 16.7998 29.4004 23.7998 c 0
 29.4004 35 30.0996 46.2002 30.7998 57.4004 c 0
 32.9004 82.5996 32.2002 109.2 47.5996 131.6 c 0
 55.2998 142.1 66.5 143.5 78.4004 147 c 0
 95.9004 150.5 112.7 154.7 129.5 159.6 c 0
 189 176.4 245 198.8 269.5 260.4 c 0
 277.9 280 282.1 301.7 282.1 323.4 c 0
 282.1 375.9 257.6 428.4 205.8 448 c 0
 179.2 457.8 150.5 462.7 122.5 469.7 c 0
 109.9 472.5 91.7002 476 81.9004 485.1 c 0
 74.9004 491.4 70.7002 506.1 68.5996 515.2 c 0
 64.4004 529.9 62.2998 546 62.2998 562.1 c 0
 62.2998 575.4 63.7002 588 67.2002 600.6 c 0
 74.9004 633.5 93.7998 653.1 114.1 678.3 c 0
 130.2 698.6 144.9 720.3 157.5 742.7 c 0
 171.5 770 179.9 802.2 209.3 817.6 c 0
 224.7 826 245.7 830.2 266 830.2 c 0
 281.4 830.2 296.8 827.4 310.1 821.8 c 0
 327.6 813.4 340.9 798.7 340.9 779.8 c 0
 340.9 775.6 340.2 771.4 338.8 767.2 c 0
 331.8 746.2 311.5 734.3 294.7 721.7 c 0
 258.3 694.4 212.8 684.6 179.2 653.8 c 0
 169.4 645.4 163.1 635.6 156.8 625.1 c 1
EndSplineSet
Validated: 1
EndChar

StartChar: afii57687
Encoding: 247 1511 63
Width: 580
VWidth: 699
Flags: W
HStem: 455 172.2<136.988 244.231> 462.7 168<193.998 415.73>
VStem: 60.9004 137.899<-294.181 -107.1> 63 90.2998<37.0996 198.1 245 294.435> 472.5 56.7002<215.109 407.213>
LayerCount: 2
Fore
SplineSet
172.2 382.2 m 1x18
 159.6 337.4 156.8 290.5 154.7 245 c 0
 154 229.6 153.3 213.5 153.3 198.1 c 0x18
 153.3 179.9 154 161.7 155.4 144.2 c 0
 159.6 104.3 169.4 65.0996 175.7 26.5996 c 0
 188.3 -48.2998 198.8 -123.2 198.8 -198.8 c 0x28
 198.8 -205.1 198.8 -211.4 198.1 -217.7 c 0
 198.1 -231.7 198.1 -249.2 194.6 -262.5 c 0
 186.2 -291.9 159.6 -315.7 134.4 -330.4 c 0
 122.5 -338.1 107.8 -345.8 93.7998 -345.8 c 0
 86.7998 -345.8 80.5 -343.7 74.2002 -339.5 c 0
 62.2998 -331.1 64.4004 -309.4 63 -296.8 c 0x18
 62.2998 -289.8 62.2998 -283.5 62.2998 -276.5 c 0
 62.2998 -261.1 63.7002 -245.7 64.4004 -230.3 c 0
 64.4004 -226.1 64.4004 -222.6 64.4004 -218.4 c 0
 64.4004 -200.2 63 -182 62.2998 -164.5 c 0
 61.5996 -145.6 60.9004 -126 60.9004 -107.1 c 0x28
 60.9004 -59.5 63 -11.2002 63 37.0996 c 0
 63 40.5996 63 44.7998 63 48.2998 c 0
 63 66.5 63 84 63 102.2 c 0
 63 152.6 64.4004 203 74.2002 252.7 c 0
 81.2002 286.3 91.7002 318.5 105.7 350 c 0
 109.2 358.4 114.8 375.9 123.2 380.8 c 1
 124.6 382.2 126.7 382.2 129.5 382.2 c 0
 132.3 382.2 135.1 382.2 137.2 382.2 c 2
 172.2 382.2 l 1x18
116.9 686 m 2
 117.6 686 l 2
 128.1 686 126.7 663.6 130.9 656.6 c 0
 138.6 641.2 154.7 632.8 170.8 630 c 0
 187.6 627.9 203.7 627.2 220.5 627.2 c 0x88
 254.1 627.2 288.4 630.7 322.7 630.7 c 0
 338.1 630.7 353.5 630 368.2 627.9 c 0
 403.2 624.4 437.5 614.6 461.3 587.3 c 0
 482.3 562.8 495.6 529.9 506.1 499.8 c 0
 515.2 471.8 520.8 443.1 525 414.4 c 0
 527.8 390.6 529.2 366.8 529.2 343 c 0
 529.2 262.5 511.7 181.3 476 109.2 c 0
 451.5 61.5996 398.3 16.0996 342.3 16.0996 c 0
 338.8 16.0996 335.3 16.0996 331.8 16.7998 c 0
 326.2 17.5 321.3 21.7002 317.1 24.5 c 0
 310.1 28.7002 303.1 32.9004 298.9 39.9004 c 0
 296.8 43.4004 296.1 47.5996 296.1 51.7998 c 0
 296.1 63 301.7 75.5996 307.3 82.5996 c 0
 329 108.5 366.8 111.3 390.6 133.7 c 0
 441.7 179.2 472.5 244.3 472.5 312.9 c 0
 472.5 319.9 472.5 326.9 471.8 334.6 c 0
 469.7 356.3 466.9 380.1 455.7 399.7 c 0
 425.6 451.5 373.1 462.7 318.5 462.7 c 0x48
 287.7 462.7 255.5 459.2 226.8 457.1 c 0
 211.4 455.7 196 455 180.6 455 c 0
 176.4 455 171.5 455 165.9 455 c 0x88
 137.2 455 105 456.4 82.5996 476.7 c 0
 63 494.2 60.9004 515.9 60.2002 540.4 c 0
 60.2002 543.2 60.2002 546 60.2002 549.5 c 0
 60.2002 574.7 63 600.6 65.7998 625.8 c 0
 67.2002 638.4 69.2998 651 71.4004 662.9 c 0
 72.0996 667.8 72.0996 674.8 75.5996 678.3 c 0
 84 687.4 105 684.6 116.9 686 c 2
EndSplineSet
Validated: 1
EndChar

StartChar: afii57688
Encoding: 248 1512 64
Width: 501
VWidth: 699
Flags: HMW
HStem: 468.3 164.5
VStem: 396.9 56.7<306.25 352.45>
LayerCount: 2
Fore
SplineSet
32.2002 697.2 m 1
 39.2002 697.2 46.2002 697.2 52.5 697.2 c 0
 63 697.2 l 0
 65.0996 697.2 68.5996 697.9 71.4004 697.9 c 0
 72.7998 697.9 74.2002 697.9 74.9004 697.2 c 0
 79.7998 693.7 80.5 681.1 82.5996 675.5 c 0
 87.5 658 95.9004 644.7 114.8 639.8 c 0
 134.4 634.9 154.7 633.5 175 633.5 c 0
 201.6 633.5 228.9 635.6 254.8 635.6 c 0
 287 635.6 317.8 632.1 347.2 617.4 c 0
 389.9 595 414.4 541.8 429.1 497.7 c 0
 445.9 448 453.6 394.1 453.6 339.5 c 0
 453.6 273 441.7 205.8 421.4 144.9 c 0
 408.8 105.7 393.4 67.9004 370.3 34.2998 c 0
 358.4 16.0996 345.8 -0.700195 326.9 -11.2002 c 0
 312.9 -18.9004 295.4 -25.2002 278.6 -25.2002 c 0
 263.2 -25.2002 249.2 -20.2998 240.8 -7 c 0
 234.5 2.09961 231 12.5996 231 23.7998 c 0
 231 35 234.5 46.2002 241.5 55.2998 c 0
 250.6 67.2002 264.6 76.2998 275.1 86.7998 c 0
 285.6 96.5996 295.4 107.8 304.5 118.3 c 0
 357 180.6 396.9 249.2 396.9 332.5 c 0
 396.9 372.4 388.5 410.9 357.7 438.2 c 0
 336.7 457.1 306.6 465.5 279.3 468.3 c 0
 262.5 470.4 246.4 471.1 229.6 471.1 c 0
 196.7 471.1 163.8 468.3 131.6 468.3 c 0
 92.4004 468.3 44.7998 471.8 27.2998 514.5 c 0
 23.7998 521.5 23.7998 530.6 23.0996 538.3 c 0
 21.7002 550.9 21 563.5 21 576.1 c 0
 21 585.2 21 593.6 21.7002 602.7 c 0
 21.7002 634.2 28 665.7 32.2002 697.2 c 1
EndSplineSet
Validated: 1
EndChar

StartChar: afii57689
Encoding: 249 1513 65
Width: 580
VWidth: 699
Flags: HMW
HStem: -7 167.3<301.35 311.15 292.6 323.75> 468.3 168.7
VStem: 95.2 69.3 468.3 53.2
LayerCount: 2
Fore
SplineSet
119.7 702.1 m 1
 169.4 702.1 l 1
 169.4 676.2 178.5 653.1 204.4 643.3 c 0
 212.1 639.8 221.9 640.5 230.3 639.8 c 0
 244.3 638.4 257.6 637.7 271.6 637 c 0
 289.8 635.6 308.7 634.9 328.3 634.9 c 0
 356.3 634.9 384.3 637 412.3 642.6 c 0
 439.6 648.9 466.9 669.2 472.5 697.9 c 1
 524.3 697.9 l 1
 524.3 670.6 516.6 640.5 509.6 614.6 c 0
 502.6 589.4 494.9 564.2 484.4 540.4 c 0
 480.9 532 477.4 520.8 471.1 513.1 c 0
 452.9 492.8 420.7 482.3 394.8 476 c 0
 370.3 469.7 346.5 468.3 322 468.3 c 0
 285.6 468.3 249.9 471.8 213.5 471.8 c 0
 198.8 471.8 184.1 471.1 169.4 469.7 c 1
 169.4 396.2 164.5 323.4 164.5 249.9 c 2
 164.5 249.2 l 2
 164.5 245.7 164.5 242.2 164.5 238 c 0
 164.5 224.7 164.5 211.4 162.4 198.1 c 0
 162.4 196 161.7 191.1 161.7 186.2 c 0
 161.7 182 162.4 178.5 163.8 176.4 c 0
 168.7 171.5 181.3 170.1 187.6 168.7 c 0
 210.7 163.8 233.1 163.8 256.9 162.4 c 0
 270.9 161 285.6 160.3 299.6 160.3 c 0
 322.7 160.3 345.1 162.4 367.5 170.8 c 0
 439.6 198.8 465.5 284.2 468.3 354.9 c 1
 522.2 354.9 l 1
 522.2 277.2 513.8 198.1 489.3 124.6 c 0
 480.2 98 469.7 66.5 452.2 44.7998 c 0
 433.3 21.7002 404.6 8.40039 376.6 0.700195 c 0
 355.6 -4.90039 334.6 -7 312.9 -7 c 0
 289.8 -7 266.7 -4.90039 244.3 -2.7998 c 0
 230.3 -1.40039 213.5 2.7998 198.8 2.7998 c 0
 193.2 2.7998 187.6 2.09961 182.7 0.700195 c 0
 149.1 -10.5 156.1 -53.9004 135.8 -77 c 0
 126.7 -87.5 112.7 -88.9004 99.4004 -88.9004 c 0
 91.7002 -88.9004 84.7002 -88.2002 77.7002 -88.2002 c 1
 79.0996 -81.9004 79.7998 -74.9004 79.7998 -67.9004 c 0
 79.7998 -65.0996 79.7998 -61.5996 79.7998 -58.0996 c 0
 79.7998 -49.7002 l 0
 81.9004 -22.4004 82.5996 4.90039 83.2998 32.2002 c 0
 87.5 113.4 91.7002 195.3 95.2002 277.2 c 0
 97.2998 318.5 98.7002 360.5 100.8 401.8 c 0
 102.2 415.1 102.2 428.4 102.9 442.4 c 0
 103.6 448.7 105 456.4 105 463.4 c 0
 105 465.5 105 467.6 104.3 469.7 c 0
 103.6 475.3 93.0996 476.7 88.2002 478.1 c 0
 76.2998 481.6 46.9004 487.9 46.9004 505.4 c 1
 46.9004 505.4 l 1
 46.9004 511 50.4004 517.3 52.5 522.2 c 2
 66.5 560 l 1
 98 643.3 l 2
 105 662.2 114.8 682.5 119.7 702.1 c 1
EndSplineSet
Validated: 5
EndChar

StartChar: afii57690
Encoding: 250 1514 66
Width: 580
VWidth: 699
Flags: HMW
HStem: -27.3 14.7G<60.9 66.85> 462 165.2<274.4 286.3 280.7 291.9 245 313.6>
VStem: 83.3 74.2 473.2 59.5
LayerCount: 2
Fore
SplineSet
147 459.2 m 1
 133.7 462.7 115.5 468.3 105 478.1 c 0
 84 497 78.4004 525.7 78.4004 554.4 c 0
 78.4004 578.9 82.5996 604.1 85.4004 625.1 c 0
 87.5 640.5 89.5996 655.9 90.2998 670.6 c 0
 90.2998 671.3 90.2998 671.3 90.2998 672 c 0
 90.2998 673.4 90.2998 676.9 90.2998 679 c 0
 90.2998 682.5 90.2998 684.6 91.7002 686 c 0
 93.7998 687.4 95.9004 687.4 98.7002 687.4 c 0
 100.8 687.4 103.6 687.4 105.7 687.4 c 1
 105.7 687.4 l 1
 117.6 687.4 128.8 688.1 140 688.1 c 1
 142.8 673.4 149.8 657.3 161.7 646.8 c 0
 182.7 627.9 218.4 627.2 245 627.2 c 0
 254.8 627.2 263.9 627.2 273.7 627.2 c 0
 310.1 627.2 346.5 626.5 382.9 620.2 c 0
 415.1 615.3 445.2 604.8 467.6 580.3 c 0
 478.8 568.4 485.1 553.7 492.1 538.3 c 0
 503.3 515.2 512.4 491.4 518.7 466.9 c 0
 528.5 427 533.4 386.4 533.4 346.5 c 0
 533.4 277.2 519.4 208.6 491.4 144.9 c 0
 469 93.7998 423.5 23.0996 362.6 23.0996 c 0
 352.1 23.0996 341.6 25.2002 330.4 29.4004 c 0
 313.6 36.4004 312.9 60.9004 312.2 77 c 0
 312.2 79.7998 311.5 82.5996 311.5 84.7002 c 0
 311.5 88.9004 312.2 92.4004 315.7 95.9004 c 0
 337.4 116.2 366.8 123.9 390.6 140 c 0
 417.9 158.2 439.6 187.6 452.9 217 c 0
 469 252.7 473.2 291.2 473.2 329.7 c 0
 473.2 331.8 473.2 333.9 473.2 336.7 c 0
 473.2 364.7 469.7 393.4 450.8 415.8 c 0
 415.8 458.5 364.7 462 313.6 462 c 0
 303.1 462 291.9 462 280.7 462 c 0
 268.1 462 252.7 464.1 238.7 464.1 c 0
 232.4 464.1 226.1 464.1 220.5 462.7 c 0
 212.1 460.6 204.4 447.3 199.5 440.3 c 0
 180.6 416.5 163.8 392 158.9 361.9 c 0
 158.2 355.6 158.2 349.3 158.2 343 c 0
 158.2 314.3 166.6 287 175 259.7 c 0
 183.4 235.2 188.3 210 196 185.5 c 0
 207.2 151.2 221.2 118.3 221.2 81.9004 c 0
 221.2 77 221.2 72.7998 220.5 67.9004 c 0
 218.4 43.4004 212.8 15.4004 194.6 -2.7998 c 0
 187.6 -9.7998 172.9 -12.5996 163.1 -14.7002 c 0
 136.5 -21.7002 109.9 -26.5996 82.5996 -26.5996 c 0
 77.7002 -26.5996 70 -27.2998 63.7002 -27.2998 c 0
 58.0996 -27.2998 53.2002 -26.5996 49.7002 -24.5 c 0
 42 -20.2998 38.5 -3.5 37.0996 4.90039 c 0
 35 16.7998 35 29.4004 35 41.2998 c 0
 35 51.0996 35 60.2002 35 70 c 0
 35 77 34.2998 84 34.2998 91.7002 c 0
 34.2998 96.5996 34.2998 100.8 35.7002 105 c 0
 39.9004 123.2 58.7998 134.4 74.2002 142.8 c 0
 79.7998 145.6 93.0996 149.8 95.2002 156.8 c 0
 95.9004 160.3 96.5996 163.8 96.5996 168 c 0
 96.5996 177.1 94.5 186.9 94.5 195.3 c 0
 93.7998 221.9 93.7998 247.8 91 274.4 c 0
 89.5996 291.2 83.2998 307.3 83.2998 324.8 c 0
 83.2998 374.5 113.4 424.2 147 459.2 c 1
EndSplineSet
Validated: 5
EndChar

StartChar: braceright
Encoding: 125 125 67
Width: 671
VWidth: 699
Flags: W
HStem: -210 0.700195<201.6 203.011> 968.1 1.40039<189.7 191.437>
VStem: 305.9 97.2998<449.974 680.892 802.2 875.957> 306.6 100.801<55.1814 301.81 575.389 716.078 716.078 865.392>
LayerCount: 2
Fore
SplineSet
189.7 969.5 m 1xe0
 220.5 969.5 252 966.7 282.1 959 c 0
 303.8 953.4 325.5 944.3 343 930.3 c 0
 380.1 899.5 394.1 847.7 401.8 802.2 c 0
 406 773.5 407.4 744.1 407.4 714.7 c 0xd0
 407.4 682.5 406 650.3 404.6 618.1 c 0
 403.9 604.1 403.2 589.4 403.2 574.7 c 0xe0
 403.2 529.2 408.1 482.3 428.4 442.4 c 0
 441 415.8 463.4 397.6 490 385 c 0
 498.4 380.8 508.9 379.4 517.3 374.5 c 1
 506.8 372.4 495.6 367.5 485.8 362.6 c 0
 414.4 326.9 407.4 241.5 407.4 170.1 c 0
 407.4 147.7 407.4 125.3 408.1 102.9 c 0
 409.5 72.0996 412.3 40.5996 412.3 9.09961 c 0
 412.3 -24.5 409.5 -57.4004 399.7 -90.2998 c 0
 389.2 -127.4 370.3 -162.4 336.7 -182 c 0
 322.7 -190.4 307.3 -196 291.9 -200.2 c 0
 262.5 -207.2 231.7 -210 201.6 -210 c 1
 201.6 -209.3 l 1
 210.7 -207.9 220.5 -203.7 229.6 -200.2 c 0
 285.6 -176.4 301 -120.4 308.7 -65.0996 c 0
 311.5 -42 312.2 -19.5996 312.2 3.5 c 0
 312.2 58.7998 306.6 113.4 306.6 168.7 c 0xd0
 306.6 196.7 308 224 312.9 252 c 0
 321.3 304.5 349.3 361.2 406.7 374.5 c 1
 406.7 375.2 l 1
 333.9 392.7 314.3 467.6 308 532 c 0
 306.6 548.8 305.9 565.6 305.9 582.4 c 0
 305.9 637 312.2 692.3 312.2 746.9 c 0
 312.2 776.3 310.1 805.7 304.5 835.1 c 0
 299.6 858.9 293.3 884.1 280.7 905.1 c 0
 261.1 937.3 226.8 960.4 189.7 968.1 c 1
 189.7 969.5 l 1xe0
EndSplineSet
Validated: 1
EndChar

StartChar: braceleft
Encoding: 123 123 68
Width: 671
VWidth: 699
Flags: HMW
HStem: -230.3 0.7<455.7 470.4>
VStem: 261.8 97.3<-36.05 50.75>
LayerCount: 2
Fore
SplineSet
155.4 363.3 m 1
 174.3 369.6 191.8 372.4 207.9 385 c 0
 252.7 418.6 258.3 483.7 261.8 534.8 c 0
 262.5 552.3 263.2 569.8 263.2 587.3 c 0
 263.2 626.5 261.1 666.4 261.1 705.6 c 0
 261.1 747.6 263.2 789.6 273 830.2 c 0
 280 858.9 289.1 889 309.4 910.7 c 0
 337.4 942.2 385 949.9 424.9 949.9 c 0
 433.3 949.9 444.5 951.3 455 951.3 c 0
 462 951.3 467.6 950.6 472.5 949.2 c 1
 438.2 941.5 406 919.1 388.5 888.3 c 0
 377.3 868 371.7 844.9 367.5 822.5 c 0
 360.5 787.5 358.4 751.1 358.4 715.4 c 0
 358.4 669.9 361.9 624.4 361.9 579.6 c 0
 361.9 567 362.6 554.4 362.6 541.8 c 0
 362.6 532.7 361.9 524.3 361.2 515.2 c 0
 354.2 457.8 345.8 392.7 282.8 371.7 c 0
 273.7 368.2 263.2 366.1 253.4 365.4 c 1
 253.4 364.7 l 1
 311.5 347.9 342.3 291.2 353.5 236.6 c 0
 361.2 198.8 363.3 159.6 363.3 120.4 c 0
 363.3 90.2998 361.9 59.5 360.5 30.0996 c 0
 359.8 11.2002 359.1 -8.40039 359.1 -28 c 0
 359.1 -44.0996 359.8 -60.2002 361.2 -75.5996 c 0
 368.2 -133.7 381.5 -192.5 439.6 -219.8 c 0
 448.7 -224 459.9 -228.2 470.4 -229.6 c 1
 470.4 -230.3 l 1
 441 -230.3 411.6 -228.2 382.9 -220.5 c 0
 359.1 -214.2 335.3 -203.7 317.1 -186.9 c 0
 285.6 -156.8 273 -106.4 267.4 -65.0996 c 0
 262.5 -32.2002 261.8 1.40039 261.8 35 c 0
 261.8 66.5 262.5 97.2998 262.5 128.1 c 0
 262.5 178.5 260.4 229.6 242.9 277.2 c 0
 232.4 303.8 214.9 326.9 191.8 343 c 0
 180.6 350.7 165.9 354.9 155.4 363.3 c 1
EndSplineSet
Validated: 1
EndChar

StartChar: nullchar
Encoding: 261 -1 69
Width: 541
VWidth: 699
Flags: HMW
HStem: 0.7 0.7
LayerCount: 2
Fore
SplineSet
2.09961 0.700195 m 1
 0.700195 2.09961 l 1
 2.09961 0.700195 l 1
EndSplineSet
Validated: 9
EndChar

StartChar: afii57716
Encoding: 262 1520 71
Width: 617
VWidth: 699
Flags: HMW
VStem: 172.2 74.9 481.6 74.9
LayerCount: 2
Fore
SplineSet
481.6 -16.7998 m 1
 481.6 108.5 504 240.8 458.5 361.9 c 0
 443.8 401.1 418.6 434 385.7 459.9 c 0
 366.8 476 333.9 485.1 331.8 512.4 c 0
 328.3 549.5 350 592.9 368.9 623 c 0
 378.7 637.7 387.8 651 405.3 654.5 c 0
 421.4 658 436.1 652.4 450.1 645.4 c 0
 481.6 630 512.4 604.8 529.9 573.3 c 0
 539.7 557.2 543.9 536.2 547.4 517.3 c 0
 555.8 476 557.9 433.3 555.8 390.6 c 0
 552.3 301 553 210.7 544.6 120.4 c 0
 541.8 89.5996 541.1 58.7998 536.9 28 c 0
 535.5 18.9004 535.5 0 529.2 -7 c 0
 519.4 -18.2002 494.2 -16.7998 481.6 -16.7998 c 1
172.2 -16.7998 m 1
 172.2 108.5 194.6 240.8 149.1 361.9 c 0
 134.4 401.1 109.2 434 77 459.9 c 0
 58.0996 476 25.2002 485.1 22.4004 512.4 c 0
 19.5996 549.5 40.5996 592.9 60.2002 623 c 0
 69.2998 637.7 78.4004 651 96.5996 654.5 c 0
 112 658 126.7 652.4 140.7 645.4 c 0
 172.9 630 203 604.8 220.5 573.3 c 0
 230.3 557.2 234.5 536.2 238.7 517.3 c 0
 247.1 476 248.5 433.3 247.1 390.6 c 0
 242.9 301 244.3 210.7 235.2 120.4 c 0
 232.4 89.5996 231.7 58.7998 227.5 28 c 0
 226.1 18.9004 226.1 0 219.8 -7 c 0
 210 -18.2002 185.5 -16.7998 172.2 -16.7998 c 1
EndSplineSet
Validated: 33
EndChar

StartChar: afii57717
Encoding: 263 1521 72
Width: 580
VWidth: 699
Flags: HMW
VStem: 443.1 67.2
LayerCount: 2
Fore
SplineSet
98 687.4 m 1
 97.2998 688.1 l 1
 98 687.4 l 1
54.5996 681.8 m 1
 97.2998 687.4 l 1
 96.5996 682.5 95.2002 677.6 95.9004 672.7 c 0
 97.2998 664.3 100.1 651.7 105 644.7 c 0
 126.7 611.8 175 604.1 207.2 586.6 c 0
 231 573.3 251.3 551.6 256.2 524.3 c 0
 258.3 511 257.6 497.7 256.9 484.4 c 0
 252 412.3 224 343 179.2 287 c 0
 169.4 274.4 158.9 262.5 147.7 252 c 0
 140.7 245 133.7 238.7 123.2 242.9 c 0
 118.3 245 112.7 252.7 109.2 256.9 c 2
 105 260.4 98.7002 265.3 97.2998 270.2 c 0
 95.9004 275.1 102.2 279.3 105 282.1 c 0
 113.4 290.5 121.8 300.3 130.2 310.1 c 0
 153.3 338.8 185.5 383.6 169.4 424.2 c 0
 165.2 434 144.2 441 135.1 445.2 c 0
 105.7 457.8 72.7998 467.6 47.5996 488.6 c 0
 2.09961 526.4 21.7002 598.5 39.9004 645.4 c 0
 44.0996 657.3 51.0996 669.2 54.5996 681.8 c 1
443.1 -16.7998 m 1
 443.1 110.6 466.2 242.2 419.3 364.7 c 0
 405.3 401.8 380.1 434.7 349.3 459.9 c 0
 329 475.3 296.1 485.1 294 513.1 c 0
 291.9 550.2 311.5 591.5 331.1 622.3 c 0
 340.2 637 349.3 650.3 367.5 654.5 c 0
 382.2 658 395.5 652.4 409.5 646.8 c 0
 441.7 632.8 473.9 605.5 492.1 574.7 c 0
 501.9 557.2 506.1 535.5 510.3 516.6 c 0
 519.4 471.1 520.1 424.2 518 378 c 0
 516.6 340.2 518 301.7 515.9 263.2 c 0
 515.2 239.4 512.4 215.6 510.3 191.8 c 0
 508.9 168 510.3 143.5 506.8 119.7 c 0
 503.3 88.9004 503.3 57.4004 498.4 26.5996 c 0
 497.7 17.5 497.7 -2.09961 490.7 -7.7002 c 0
 479.5 -18.2002 457.1 -16.7998 443.1 -16.7998 c 1
EndSplineSet
Validated: 33
EndChar

StartChar: afii57718
Encoding: 264 1522 73
Width: 542
VWidth: 699
Flags: W
LayerCount: 2
Fore
SplineSet
98 687.4 m 1
 97.2998 688.1 l 1
 98 687.4 l 1
369.6 687.4 m 1
 368.2 688.1 l 1
 369.6 687.4 l 1
54.5996 681.8 m 1
 97.2998 687.4 l 1
 96.5996 682.5 95.2002 677.6 95.9004 672.7 c 0
 97.2998 664.3 100.1 651.7 105 644.7 c 0
 126.7 611.8 175 604.1 207.2 586.6 c 0
 231 573.3 251.3 551.6 256.2 524.3 c 0
 258.3 511 257.6 497.7 256.9 484.4 c 0
 252 412.3 224 343 179.2 287 c 0
 169.4 274.4 158.9 262.5 147.7 252 c 0
 140.7 245 133.7 238.7 123.2 242.9 c 0
 118.3 245 112.7 252.7 109.2 256.9 c 2
 105 260.4 98.7002 265.3 97.2998 270.2 c 0
 95.9004 275.1 102.2 279.3 105 282.1 c 0
 113.4 290.5 121.8 300.3 130.2 310.1 c 0
 153.3 338.8 185.5 383.6 169.4 424.2 c 0
 165.2 434 144.2 441 135.1 445.2 c 0
 105.7 457.8 72.7998 467.6 47.5996 488.6 c 0
 2.09961 526.4 21.7002 598.5 39.9004 645.4 c 0
 44.0996 657.3 51.0996 669.2 54.5996 681.8 c 1
325.5 681.8 m 1
 368.2 687.4 l 1
 367.5 682.5 366.1 677.6 366.8 672.7 c 0
 368.2 664.3 371 651.7 375.9 644.7 c 0
 397.6 611.8 446.6 604.1 478.1 586.6 c 0
 501.9 573.3 522.2 551.6 527.8 524.3 c 0
 529.9 511 528.5 497.7 527.8 484.4 c 0
 522.9 412.3 494.9 343 450.1 287 c 0
 440.3 274.4 429.8 262.5 419.3 252 c 0
 412.3 245 404.6 238.7 394.8 242.9 c 0
 389.2 245 384.3 252.7 380.1 256.9 c 0
 376.6 260.4 370.3 265.3 368.9 270.2 c 0
 366.8 275.1 373.8 279.3 375.9 282.1 c 1
 385 290.5 393.4 300.3 401.1 310.1 c 0
 424.2 338.8 457.1 383.6 441 424.2 c 0
 436.8 434 415.8 441 406.7 445.2 c 0
 377.3 457.8 343.7 467.6 319.2 488.6 c 0
 273 526.4 292.6 598.5 310.8 645.4 c 0
 315.7 657.3 322 669.2 325.5 681.8 c 1
EndSplineSet
Validated: 33
EndChar

StartChar: uniFB1D
Encoding: 265 64285 74
Width: 270
VWidth: 699
Flags: HMW
VStem: 39.9 217
LayerCount: 2
Fore
SplineSet
98 687.4 m 1
 97.2998 688.1 l 1
 98 687.4 l 1
54.5996 681.8 m 1
 97.2998 687.4 l 1
 96.5996 682.5 95.2002 677.6 95.9004 672.7 c 0
 97.2998 664.3 100.1 651.7 105 644.7 c 0
 126.7 611.8 175 604.1 207.2 586.6 c 0
 231 573.3 251.3 551.6 256.2 524.3 c 0
 258.3 511 257.6 497.7 256.9 484.4 c 0
 252 412.3 224 343 179.2 287 c 0
 169.4 274.4 158.9 262.5 147.7 252 c 0
 140.7 245 133.7 238.7 123.2 242.9 c 0
 118.3 245 112.7 252.7 109.2 256.9 c 2
 105 260.4 98.7002 265.3 97.2998 270.2 c 0
 95.9004 275.1 102.2 279.3 105 282.1 c 0
 113.4 290.5 121.8 300.3 130.2 310.1 c 0
 153.3 338.8 185.5 383.6 169.4 424.2 c 0
 165.2 434 144.2 441 135.1 445.2 c 0
 105.7 457.8 72.7998 467.6 47.5996 488.6 c 0
 2.09961 526.4 21.7002 598.5 39.9004 645.4 c 0
 44.0996 657.3 51.0996 669.2 54.5996 681.8 c 1
59.5 208.6 m 0
 98.7002 215.6 123.9 163.1 89.5996 139.3 c 0
 84.7002 135.8 78.4004 133.7 72.7998 133 c 0
 25.9004 124.6 11.9004 200.2 59.5 208.6 c 0
EndSplineSet
Validated: 33
EndChar
